<?xml version="1.0" encoding="UTF-8" standalone="no"?>
<!-- Created with Inkscape (http://www.inkscape.org/) -->

<svg
   xmlns:dc="http://purl.org/dc/elements/1.1/"
   xmlns:cc="http://creativecommons.org/ns#"
   xmlns:rdf="http://www.w3.org/1999/02/22-rdf-syntax-ns#"
   xmlns:svg="http://www.w3.org/2000/svg"
   xmlns="http://www.w3.org/2000/svg"
   xmlns:xlink="http://www.w3.org/1999/xlink"
   xmlns:sodipodi="http://sodipodi.sourceforge.net/DTD/sodipodi-0.dtd"
   xmlns:inkscape="http://www.inkscape.org/namespaces/inkscape"
   width="32px"
   height="32px"
   id="svg5678"
   version="1.1"
   inkscape:version="0.47 r22583"
   sodipodi:docname="map.svg"
   inkscape:export-filename="/home/damien/src/phraymd/icons/map.png"
   inkscape:export-xdpi="360"
   inkscape:export-ydpi="360">
  <defs
     id="defs5680">
    <inkscape:perspective
       sodipodi:type="inkscape:persp3d"
       inkscape:vp_x="0 : 16 : 1"
       inkscape:vp_y="0 : 1000 : 0"
       inkscape:vp_z="32 : 16 : 1"
       inkscape:persp3d-origin="16 : 10.666667 : 1"
       id="perspective5686" />
    <inkscape:perspective
       id="perspective5694"
       inkscape:persp3d-origin="300 : 133.33333 : 1"
       inkscape:vp_z="600 : 200 : 1"
       inkscape:vp_y="0 : 1000 : 0"
       inkscape:vp_x="0 : 200 : 1"
       sodipodi:type="inkscape:persp3d" />
    <inkscape:perspective
       id="perspective176"
       inkscape:persp3d-origin="259.66199 : 145.026 : 1"
       inkscape:vp_z="519.32397 : 217.539 : 1"
       inkscape:vp_y="0 : 1000 : 0"
       inkscape:vp_x="0 : 217.539 : 1"
       sodipodi:type="inkscape:persp3d" />
    <radialGradient
       inkscape:collect="always"
       xlink:href="#SVGID_2_"
       id="radialGradient6758"
       gradientUnits="userSpaceOnUse"
       gradientTransform="translate(0.2754,-408.033)"
       cx="219.7231"
       cy="532.35522"
       r="267.9371" />
    <radialGradient
       inkscape:collect="always"
       xlink:href="#SVGID_3_"
       id="radialGradient6760"
       gradientUnits="userSpaceOnUse"
       gradientTransform="translate(0.2754,-408.033)"
       cx="219.5869"
       cy="532.39429"
       r="268.11029" />
    <radialGradient
       inkscape:collect="always"
       xlink:href="#SVGID_4_"
       id="radialGradient6762"
       gradientUnits="userSpaceOnUse"
       gradientTransform="translate(0.2754,-408.033)"
       cx="219.72459"
       cy="532.36212"
       r="267.92621" />
    <radialGradient
       inkscape:collect="always"
       xlink:href="#SVGID_5_"
       id="radialGradient6764"
       gradientUnits="userSpaceOnUse"
       gradientTransform="translate(0.2754,-408.033)"
       cx="219.72411"
       cy="532.36401"
       r="267.9263" />
    <radialGradient
       inkscape:collect="always"
       xlink:href="#SVGID_6_"
       id="radialGradient6766"
       gradientUnits="userSpaceOnUse"
       gradientTransform="translate(0.2754,-408.033)"
       cx="219.7251"
       cy="532.36298"
       r="267.92719" />
    <radialGradient
       inkscape:collect="always"
       xlink:href="#SVGID_7_"
       id="radialGradient6768"
       gradientUnits="userSpaceOnUse"
       gradientTransform="translate(0.2754,-408.033)"
       cx="219.72411"
       cy="532.35718"
       r="267.92981" />
    <radialGradient
       inkscape:collect="always"
       xlink:href="#SVGID_8_"
       id="radialGradient6770"
       gradientUnits="userSpaceOnUse"
       gradientTransform="translate(0.2754,-408.033)"
       cx="219.71831"
       cy="532.36401"
       r="267.92969" />
    <radialGradient
       inkscape:collect="always"
       xlink:href="#SVGID_1_"
       id="radialGradient6772"
       gradientUnits="userSpaceOnUse"
       gradientTransform="translate(0.2754,-408.033)"
       cx="247.8867"
       cy="513.07202"
       r="331" />
  </defs>
  <sodipodi:namedview
     id="base"
     pagecolor="#ffffff"
     bordercolor="#666666"
     borderopacity="1.0"
     inkscape:pageopacity="0.0"
     inkscape:pageshadow="2"
     inkscape:zoom="7.9180417"
     inkscape:cx="6.2436677"
     inkscape:cy="14.309006"
     inkscape:current-layer="layer1"
     showgrid="true"
     inkscape:grid-bbox="true"
     inkscape:document-units="px"
     inkscape:window-width="1024"
     inkscape:window-height="526"
     inkscape:window-x="0"
     inkscape:window-y="27"
     inkscape:window-maximized="1" />
  <metadata
     id="metadata5683">
    <rdf:RDF>
      <cc:Work
         rdf:about="">
        <dc:format>image/svg+xml</dc:format>
        <dc:type
           rdf:resource="http://purl.org/dc/dcmitype/StillImage" />
        <dc:title></dc:title>
      </cc:Work>
    </rdf:RDF>
  </metadata>
  <g
     id="layer1"
     inkscape:label="Layer 1"
     inkscape:groupmode="layer">
    <g
       id="Water"
       transform="matrix(0.0599288,0,0,0.07944196,0.51060216,1.6139734)"
       style="stroke:#00c4f1;stroke-width:12.63907528;stroke-miterlimit:4;stroke-opacity:1;stroke-dasharray:none">
	
		<radialGradient
   id="SVGID_1_"
   cx="247.8867"
   cy="513.07202"
   r="331"
   gradientTransform="translate(0.2754,-408.033)"
   gradientUnits="userSpaceOnUse">
		<stop
   offset="0"
   style="stop-color: rgb(212, 237, 237);"
   id="stop5" />

		<stop
   offset="0.3867"
   style="stop-color: rgb(210, 237, 237);"
   id="stop7" />

		<stop
   offset="0.526"
   style="stop-color: rgb(203, 235, 236);"
   id="stop9" />

		<stop
   offset="0.6254"
   style="stop-color: rgb(192, 232, 235);"
   id="stop11" />

		<stop
   offset="0.7057"
   style="stop-color: rgb(175, 228, 233);"
   id="stop13" />

		<stop
   offset="0.7744"
   style="stop-color: rgb(153, 223, 231);"
   id="stop15" />

		<stop
   offset="0.8353"
   style="stop-color: rgb(125, 217, 228);"
   id="stop17" />

		<stop
   offset="0.8904"
   style="stop-color: rgb(93, 209, 225);"
   id="stop19" />

		<stop
   offset="0.941"
   style="stop-color: rgb(55, 200, 221);"
   id="stop21" />

		<stop
   offset="0.9861"
   style="stop-color: rgb(14, 190, 216);"
   id="stop23" />

		<stop
   offset="1"
   style="stop-color: rgb(0, 187, 215);"
   id="stop25" />

	</radialGradient>

	<path
   style="fill:url(#radialGradient6772);stroke:#00c4f1;stroke-width:12.63907528;stroke-miterlimit:4;stroke-opacity:1;stroke-dasharray:none"
   d="m 1,64.329 c 0,0 87,-63 251,-63 134.667,0 266,61 266,61 v 237 1 c 3.684,-2.667 -134,61 -250,61 -182.667,0 -267,-61 -267,-61 v -235 -1"
   id="path27" />

</g>
    <g
       id="Continents"
       transform="matrix(0.07311081,0,0,0.06967748,-4.0180576,2.967451)"
       style="stroke:#b70000;stroke-width:10.97603893;stroke-miterlimit:4;stroke-opacity:1;stroke-dasharray:none">
	<path
   style="fill:#e5c6b0;stroke:#b70000;stroke-width:10.97603893;stroke-miterlimit:4;stroke-opacity:1;stroke-dasharray:none"
   d="m 335.298,246.505 c 0.717,-6.735 10.176,-0.229 15.752,-2.25 0.582,0.168 1.48,0.021 1.5,0.75 -5.5,0 -11.002,0 -16.502,0 -0.127,1.123 0.271,2.771 -0.75,3.001 0,-0.5 0,-1 0,-1.501 z"
   id="path30" />

	<path
   style="fill:#fcd5b9;stroke:#b70000;stroke-width:10.97603893;stroke-miterlimit:4;stroke-opacity:1;stroke-dasharray:none"
   d="m 329.298,253.256 c -0.021,-0.729 -0.918,-0.582 -1.5,-0.75 -0.168,-0.582 -0.021,-1.479 -0.752,-1.5 -0.316,-1.565 0.516,-1.984 0.752,-3 1.344,-0.096 1.582,0.918 3,0.75 -0.08,1.921 -0.425,3.577 -1.5,4.5 z"
   id="path32" />

	<path
   style="fill:#e5c6b0;stroke:#b70000;stroke-width:10.97603893;stroke-miterlimit:4;stroke-opacity:1;stroke-dasharray:none"
   d="m 329.298,253.256 c -0.029,3.224 -0.979,5.523 -2.252,7.502 0.111,-2.059 0.141,-3.866 -1.5,-2.251 1.019,-1.732 3.019,-2.483 2.252,-6.001 0.582,0.168 1.479,0.021 1.5,0.75 z"
   id="path34" />

	<path
   style="fill:none;stroke:#b70000;stroke-width:10.97603893;stroke-miterlimit:4;stroke-opacity:1;stroke-dasharray:none"
   d="m 408.808,70.981 c -0.248,0 -0.498,0 -0.743,0 3.438,4.067 7.188,7.816 11.245,11.247 2.931,3.567 6.349,6.658 8.996,10.506 0.002,0 0.004,0 0.007,0 -3.874,-6.882 -12.56,-15.443 -19.505,-21.753 z"
   id="path36" />

	<path
   style="fill:#b08f78;stroke:#b70000;stroke-width:10.97603893;stroke-miterlimit:4;stroke-opacity:1;stroke-dasharray:none"
   d="m 421.56,80.733 c 0.009,0.039 0.023,0.083 0.031,0.123 0.008,0.008 0.019,0.016 0.025,0.021 -0.015,-0.05 -0.044,-0.087 -0.056,-0.144 z"
   id="path38" />

	<path
   style="fill:#fcd5b9;stroke:#b70000;stroke-width:10.97603893;stroke-miterlimit:4;stroke-opacity:1;stroke-dasharray:none"
   d="m 221.2,310.107 c -0.897,-0.666 -3.824,-0.835 -4.516,-0.278 -0.489,0.395 -0.474,1.19 -0.59,1.752 -0.128,0.62 -0.344,1.123 -0.344,1.749 0,1.42 0.02,2.744 0.45,4.084 0.235,0.732 0.042,1.729 0.665,2.249 0.501,0.42 1.134,0.385 1.717,0.587 0.768,0.268 1.394,0.771 1.961,1.337 0.53,0.532 1.072,1.099 1.576,1.655 0.216,0.239 0.493,0.431 0.705,0.646 0.159,0.16 0.209,0.248 0.393,0.391 0.171,0.133 0.344,0.239 0.585,0.301 0.31,0.079 0.586,0.009 0.891,0.032 0.215,0.016 0.383,0.095 0.603,0.127 0.491,0.072 1.026,-0.134 1.487,-0.276 0.65,-0.199 1.082,-0.628 1.623,-1.005 0.521,-0.361 0.53,-0.646 0.812,-1.212 0.353,-0.709 1.809,-2.227 0.954,-2.982 -0.504,-0.447 -1.162,-0.354 -1.741,-0.595 -0.654,-0.269 -0.801,-0.531 -1.14,-1.212 -0.298,-0.597 -0.643,-1.316 -0.785,-1.971 -0.146,-0.673 0.107,-1.465 -0.208,-2.118 -0.219,-0.454 -0.774,-0.971 -1.045,-1.366 -0.305,-0.445 -0.721,-0.996 -1.186,-1.256 -0.92,-0.513 -1.826,-0.665 -2.867,-0.639 z"
   id="path40" />

	<g
   id="g42"
   style="stroke:#b70000;stroke-width:10.97603893;stroke-miterlimit:4;stroke-opacity:1;stroke-dasharray:none">
		
			<radialGradient
   id="SVGID_2_"
   cx="219.7231"
   cy="532.35522"
   r="267.9371"
   gradientTransform="translate(0.2754,-408.033)"
   gradientUnits="userSpaceOnUse">
			<stop
   offset="0"
   style="stop-color: rgb(246, 232, 214);"
   id="stop45" />

			<stop
   offset="1"
   style="stop-color: rgb(241, 172, 113);"
   id="stop47" />

		</radialGradient>

		<path
   style="fill:url(#radialGradient6758);stroke:#b70000;stroke-width:10.97603893;stroke-miterlimit:4;stroke-opacity:1;stroke-dasharray:none"
   d="m 299.199,255.592 c 0.021,0.012 0.047,0.021 0.067,0.03 1.5,0.685 2.002,2.219 1.537,3.745 -0.541,1.786 -1.905,3.373 -3.399,4.41 -1.91,1.329 -3.654,2.889 -5.627,4.136 -1.373,0.869 -2.771,1.688 -4.082,2.646 -1.184,0.862 -2.555,1.311 -3.504,2.51 -0.354,0.445 -0.625,0.824 -1.006,1.209 -0.336,0.341 -0.521,1.15 -0.687,1.598 -0.19,0.514 -0.037,0.989 -0.334,1.5 -0.095,0.162 -0.646,0.59 -0.761,0.662 -0.817,0.518 -1.852,-0.629 -1.864,-1.328 -0.031,-1.637 -0.082,-2.146 0,-3.042 0.049,-0.534 0.019,-0.853 0.168,-1.349 0.14,-0.462 0.229,-0.848 0.451,-1.312 0.219,-0.458 0.133,-1.092 0.399,-1.476 0.166,-0.239 0.478,-0.324 0.644,-0.639 0.1,-0.189 0.073,-0.379 0.168,-0.559 0.383,-0.721 0.795,-1.741 1.385,-2.314 0.562,-0.552 1.108,-0.979 1.629,-1.604 1.214,-1.46 2.64,-2.737 4.177,-3.849 1.674,-1.209 3.221,-2.603 5.016,-3.641 1.729,-0.998 3.588,-2.214 5.623,-1.333 z"
   id="path49" />

		<g
   id="g51"
   style="stroke:#b70000;stroke-width:10.97603893;stroke-miterlimit:4;stroke-opacity:1;stroke-dasharray:none">
			
				<radialGradient
   id="SVGID_3_"
   cx="219.5869"
   cy="532.39429"
   r="268.11029"
   gradientTransform="translate(0.2754,-408.033)"
   gradientUnits="userSpaceOnUse">
				<stop
   offset="0"
   style="stop-color: rgb(246, 232, 214);"
   id="stop54" />

				<stop
   offset="1"
   style="stop-color: rgb(241, 172, 113);"
   id="stop56" />

			</radialGradient>

			<path
   style="fill:url(#radialGradient6760);stroke:#b70000;stroke-width:10.97603893;stroke-miterlimit:4;stroke-opacity:1;stroke-dasharray:none"
   d="m 423.06,82.229 c -0.471,-0.46 -0.961,-0.9 -1.438,-1.352 0.208,0.723 0.819,1.042 1.438,1.352 z"
   id="path58" />

			
				<radialGradient
   id="SVGID_4_"
   cx="219.72459"
   cy="532.36212"
   r="267.92621"
   gradientTransform="translate(0.2754,-408.033)"
   gradientUnits="userSpaceOnUse">
				<stop
   offset="0"
   style="stop-color: rgb(246, 232, 214);"
   id="stop61" />

				<stop
   offset="1"
   style="stop-color: rgb(241, 172, 113);"
   id="stop63" />

			</radialGradient>

			<path
   style="fill:url(#radialGradient6762);stroke:#b70000;stroke-width:10.97603893;stroke-miterlimit:4;stroke-opacity:1;stroke-dasharray:none"
   d="m 176.28,28.479 c -1.78,-0.525 -7.78,2.975 -5.25,6.5 1.56,2.93 5.74,2.25 7.25,5.25 -0.6,1.398 -1.26,2.74 -1.5,4.5 0,1.5 0,3 0,4.5 l 0.25,7.5 c -3.83,9.17 -20.2,6.8 -24.26,15.75 -2.21,5.3 -5.874,5.534 -9.604,10.684 -0.25,0 -1.396,1.316 -1.646,1.316 -1.68,2.318 -2.03,3.97 -4.25,5.76 -1.28,1.71 -5.73,0.271 -8.25,0.75 -10.7,1.79 -12.51,14.49 -17.5,22 l -0.75,4.5 c 0,2.25 0.73,4.59 0.73,6.84 -0.87,0.63 -3.5,-0.75 -4.48,0.66 -0.645,1.465 0,3 0,4.5 1.24,3.521 -0.27,9.84 -0.02,15.965 0,1 -0.125,3.375 1,4.375 6.875,6.125 -0.079,11.831 4,16.5 4.531,5.188 6.125,6.625 11,6.375 2.187,-0.11 2.605,-0.88 4.125,-3 1.855,-4.045 -0.625,-9.25 0.395,-12.465 2.6,-5.03 7.146,-12.888 11.25,-12.75 7.646,0.256 6.48,21.09 8.25,23.26 18.73,6.08 15.81,-13.13 23.26,-19.51 5.17,-0.07 11.28,0.79 13.5,-2.25 l 3,-2.25 c 14.22,-1.244 24.42,-5.03 35.25,-4.5 1.36,2.09 -1.863,8.09 -2.75,11 7.31,-0.79 18.002,5.922 22.783,5.152 -1.08,-0.92 -3.5,-6.062 -3.812,-8.375 0.75,-1.438 7.438,-6.625 13.04,-5.527 2.47,4.71 -4.457,8.173 -3,10.5 0.543,1.006 4.84,-1.45 7.5,0 1.8,2.2 -0.13,8.13 3.75,8.26 4.891,0.63 2.951,-5.55 7.5,-5.26 4.561,2.2 5.42,8.09 9.75,10.51 10.432,0.932 16.283,-1.938 26.043,-1.67 4.25,3 10.002,4.583 18.084,4.5 3.5,0.333 2.75,-0.25 6.883,0.17 5.49,-0.18 7.513,0.562 12,0 l 5.617,-0.253 c 9.48,-0.02 17.668,-4.417 20.633,-8.747 0.285,-4.503 -1.348,-6.663 -1.133,-9.67 0.891,-2.1 3.396,-1.99 5.633,-2.09 3.701,-0.16 8.451,0.09 12.75,0 5.144,1.38 2.933,-5.57 6.763,-5.5 5.188,-1.16 4.688,0.34 8.25,0 6.729,0.771 4.948,10.05 8.25,14.25 6.198,0.71 8.327,-2.67 12,-4.5 5.188,-0.16 10.43,0.59 15.688,0.09 0.92,-0.08 3.281,-1.553 3,-2.833 1.07,-5.06 -2.59,-5.148 -4,-7.75 -0.699,-4.358 -2.438,-11.387 1.812,-12.757 1.801,0.45 3.42,1.08 6,0.75 0.327,-2.83 -1.48,-3.52 -2.25,-5.25 -0.312,-2.41 1.354,-6.577 0.188,-10.91 l -4.666,-3.167 c -3.84,-3.91 -6.664,-9.784 -9.022,-15.173 0.157,-0.85 0.827,-1.17 1.5,-1.5 0,0 0,0 0,-0.01 6.938,-0.19 5.198,8.31 10.5,9.76 0.051,-0.46 0.108,-0.89 0.75,-0.75 -1.66,-1.08 0.948,-1.83 -0.75,-2.25 -0.183,-7.32 -5.228,-9.995 -8.937,-13.785 l -3.311,-3.023 -3.785,-3.347 c -6.49,-6.06 -13.392,-10.635 -19.222,-17.354 -1,0 -2,0 -3,0 -0.5,0 -1,0 -1.5,0 -7.039,-4.97 -14.35,-9.66 -21.76,-14.25 l -5.25,-3.75 c -6.938,-2.83 -15.891,-7.15 -24.75,-8.25 -4.141,-0.521 -9.51,2.46 -12,-2.25 -0.27,-4.021 2.23,-5.28 1.5,-9.75 -5.311,-2.95 -13.01,-3.5 -17.25,-7.51 -1.221,0.22 -1.301,-0.7 -2.25,-0.75 -2.871,-0.632 -5.82,-1.495 -9.551,-1.267 -2.279,-0.47 -5.66,-0.645 -10.5,-0.875 -4.25,0 -8.5,0 -12.75,0 l -3.959,-0.108 c -2.461,-1.04 -3,-4 -5.25,-5.25 -1.09,-1.16 -3.84,-0.66 -6,-0.75 -0.791,0.738 -2.291,0.858 -1.5,3.72 -3.33,4.67 -10.951,6.229 -14.25,11.29 1.97,9.46 16.333,6.52 19.459,7.6 6.875,2.375 14.58,14.65 11,22.25 l -9.459,6.15 c -3.11,1.64 -6.916,2.975 -8.666,5.975 -2.021,1.98 -0.75,6.5 -1.084,10.525 -0.916,0.975 -0.59,2.91 -3,2.25 -2.63,-1.12 -1.86,-5.63 -3,-8.25 -1.915,-3.9 -5.415,-2.275 -6.75,-6 0,-0.5 0.13,-3.48 0.13,-3.98 -0.73,-0.02 1.16,-2 -1.75,-4.34 -4.75,-2.75 -9.31,5.96 -11.89,3.82 l -4.25,-3.75 c -1.62,-2.62 -5.43,-2.83 -9.61,-2.9 -1.95,-1.148 -1.5,-0.83 -5.34,-0.58 l -2.55,-1.02 c -5.21,-4.51 2,-13.271 8.25,-13.5 1.47,-0.4 3.79,-0.21 3,-3 -0.155,-4.525 -8.06,-8.425 -12.155,-12.275 -1.78,-1.648 -0.875,5.25 -15.595,3.275 -2.77,0.229 -1.76,4.229 -3,6 -2.5,0 -5,0 -7.5,0 -3.03,0.475 -4.47,7.51 -8.25,5.25 0.001,-10e-4 -1.969,-7.476 -3.749,-8.001 z"
   id="path65" />

		</g>

		
			<radialGradient
   id="SVGID_5_"
   cx="219.72411"
   cy="532.36401"
   r="267.9263"
   gradientTransform="translate(0.2754,-408.033)"
   gradientUnits="userSpaceOnUse">
			<stop
   offset="0"
   style="stop-color: rgb(246, 232, 214);"
   id="stop68" />

			<stop
   offset="1"
   style="stop-color: rgb(241, 172, 113);"
   id="stop70" />

		</radialGradient>

		<path
   style="fill:url(#radialGradient6764);stroke:#b70000;stroke-width:10.97603893;stroke-miterlimit:4;stroke-opacity:1;stroke-dasharray:none"
   d="m 373.689,267.017 c -6.556,-2.616 -13.75,-5.875 -14.5,-17.25 -0.023,-0.337 -3.355,-3.067 -3.732,-3.35 -0.51,-0.38 -1.248,-0.702 -1.688,-1.146 -0.293,-0.297 -0.399,-0.707 -0.674,-1.041 -1.145,-1.4 -3.367,-1.402 -5.01,-1.561 -0.27,-0.024 -0.764,0.097 -1.012,-0.018 -0.49,-0.222 -0.476,-0.688 -0.822,-1.004 -0.367,-0.335 -0.703,-0.293 -1.166,-0.415 -0.846,-0.223 -1.721,-0.517 -2.6,-0.578 -0.773,-0.055 -1.564,0.008 -2.316,0.083 -0.965,0.097 -1.609,0.491 -2.59,0.729 -0.801,0.192 -2.262,0.299 -2.682,0.938 -0.466,0.707 -0.312,1.787 -0.312,2.59 0,1.045 0.191,2.06 -0.51,2.82 -0.314,0.342 -0.461,0.443 -1.174,0.508 -0.531,0.049 -1.281,0.096 -1.816,-0.004 -1.346,-0.249 -2.705,-1.327 -3.896,0.107 -1.237,1.489 -0.271,2.568 -0.271,4.31 0,0.892 0.041,1.793 0,2.684 -0.061,1.372 -0.369,1.203 -1.188,1.985 -0.581,0.557 -1.125,1.164 -2.729,1.919 -1.107,0.521 -2.699,1.688 -3.752,2.33 -2.217,1.354 -4.297,2.873 -6.25,4.583 -3.938,3.441 -6.584,7.583 -10.5,12.083 -3.666,2.917 -5.041,3.947 -7.373,7.254 -0.756,1.072 -1.551,2.089 -2.138,3.271 -0.549,1.104 -1.299,2.524 -1.555,3.728 -0.119,0.562 -0.58,1.654 -0.201,2.081 0.865,0.97 2.439,0.483 3.455,0.357 1.859,-0.231 2.951,-0.387 4.363,-0.799 1.26,-0.365 2.599,-0.638 3.822,-1.078 0.986,-0.355 1.379,-0.332 2.938,-0.748 1.039,-0.277 2.041,-0.413 3.099,-0.642 2.471,-0.527 4.965,-0.96 7.479,-1.205 0.142,-0.014 0.281,-0.022 0.425,-0.028 0.997,-0.04 2.004,0 3.002,0 1.43,0 2.846,0.062 4.271,0.062 1.072,0 2.586,0.245 3.6,0.688 2.498,1.092 4.214,2.183 6.687,3.266 0.68,0.297 1.373,0.692 2.111,0.734 0.893,0.052 1.803,0 2.696,0 1.732,0 3.461,0.051 5.183,-0.16 1.516,-0.188 2.612,-0.633 3.93,-1.418 1.066,-0.636 1.67,-1.791 2.648,-2.518 1.125,-0.835 2.598,-2.189 3.969,-1.89 5.026,1.108 8.32,-4.031 12.485,-6.031 2.562,-1.229 6.861,-1.916 8.104,-3.798 1.95,-5.804 -2.378,-13.383 -1.81,-12.428 z"
   id="path72" />

		
			<radialGradient
   id="SVGID_6_"
   cx="219.7251"
   cy="532.36298"
   r="267.92719"
   gradientTransform="translate(0.2754,-408.033)"
   gradientUnits="userSpaceOnUse">
			<stop
   offset="0"
   style="stop-color: rgb(246, 232, 214);"
   id="stop75" />

			<stop
   offset="1"
   style="stop-color: rgb(241, 172, 113);"
   id="stop77" />

		</radialGradient>

		<path
   style="fill:url(#radialGradient6766);stroke:#b70000;stroke-width:10.97603893;stroke-miterlimit:4;stroke-opacity:1;stroke-dasharray:none"
   d="m 328.25,207.58 c -2.5,-2.625 -3.375,-6.125 -5.375,-9.625 -1.422,-0.794 -4.08,-0.887 -4.965,-0.791 -7.455,0.812 -10.17,-1.499 -14.875,-6.812 -1.939,-2.19 -2.922,-4.401 -5.521,-5.824 -3.744,-2.051 -8.283,-1.979 -12.348,-2.864 -1.646,-0.358 -3.799,-0.725 -5.459,-0.833 -1.201,-0.079 -2.355,-0.04 -3.527,-0.167 -2.674,-0.291 -4.717,-1.598 -7.326,-1.971 -1.272,-0.182 -2.951,-0.175 -4.063,-0.896 -1.035,-0.67 -1.726,-1.785 -2.699,-2.616 -1.082,-0.924 -2.936,-2.163 -3.755,-3.351 -0.493,-0.713 -4.172,0.396 -4.796,0.416 0,0 -2.62,0.334 -3.704,-0.416 -1.084,-0.75 1.317,-7.817 -0.771,-11.375 -3.48,-5.926 -5.277,-4.128 -8.312,-6.125 -7.125,-4.688 -12.793,-5.456 -17.967,-5.337 -3.129,0.072 -5.095,0.775 -9.548,1.809 -4.084,0.944 -7.872,4.405 -9.786,6.518 -1.824,2.013 -2.658,2.458 -5.22,3.806 -1.055,0.557 -2.233,0.815 -3.417,1.021 -2.025,0.348 -4.263,-0.204 -6.275,-0.312 -2.164,-0.117 -4.5,0.442 -6.545,1.046 -1.941,0.572 -3.025,0.998 -4.409,2.371 -0.825,0.819 -0.607,1.205 -0.913,2.583 -0.972,4.381 -6.379,4.429 -7.662,8.345 -0.507,1.546 -0.702,3.243 -0.842,4.823 -0.187,2.105 0.566,5.068 1.208,6.771 1.072,2.845 2.178,3.216 4.535,5.294 1.847,1.628 4.11,2.979 5.84,4.685 0.601,0.595 1.112,1.021 1.735,1.597 0.738,0.681 1.75,1.214 2.432,1.986 4.17,4.736 10.116,8.087 16.25,10 5.578,1.739 12.716,3.572 14.986,9.286 1.128,2.84 1.295,5.757 1.16,8.777 -0.175,3.92 -0.417,7.738 -0.96,11.622 -0.142,1.012 -0.622,1.885 -0.685,2.9 -0.245,3.94 -0.911,7.915 -1.54,11.847 -0.32,2.001 -0.668,3.997 -1.062,5.982 -0.55,2.78 -0.88,5.267 -3.729,6.479 -0.657,-0.633 -0.586,-1.716 -0.586,-2.562 0,-1.877 0.02,-3.835 0.569,-5.661 0.432,-1.435 1.107,-2.66 1.313,-4.194 0.346,-2.571 0.401,-5.271 0.884,-7.827 0.423,-2.241 0.553,-4.006 0.566,-6.317 0.01,-1.716 0.253,-3.456 0.417,-5.166 0.131,-1.378 0.253,-2.924 0.236,-4.334 -0.028,-2.329 0.021,-4.562 -0.503,-6.853 -0.105,-0.462 -0.102,-0.855 -0.406,-1.247 -0.28,-0.359 -0.482,-0.688 -0.751,-1.048 -0.836,-1.119 -1.773,-2.113 -2.625,-3.225 -1.546,-2.015 -3.929,-3.345 -6.338,-3.986 -0.944,-0.253 -1.944,-0.263 -2.853,-0.647 -1.35,-0.574 -2.937,-0.729 -4.348,-1.19 -1.921,-0.628 -3.835,-1.341 -5.843,-1.634 -0.526,-0.075 -1.035,-0.255 -1.518,-0.486 -0.361,-0.176 -0.708,-0.379 -1.038,-0.597 -1.23,-0.806 -2.41,-1.689 -3.403,-2.729 -0.521,-0.546 -0.947,-1.161 -1.43,-1.733 -0.584,-0.691 -1.215,-1.266 -1.854,-1.906 -2.386,-2.387 -3.969,-5.465 -7.05,-7.13 -3.969,-2.146 -11.275,-2.419 -15.525,-3.419 -4.745,-1.115 -9.027,-4.851 -12.228,-5.582 -11.274,-2.571 -38.664,-0.204 -39.006,10.501 -0.125,3.905 4.857,7.678 5.251,11.252 0.602,5.459 -4.529,10.176 -4.5,16.502 0.021,4.646 2.354,8.277 5.725,11.285 1.655,1.479 3.437,2.807 5.125,4.244 1.983,1.692 3.948,3.605 6.321,4.773 0.714,0.352 1.168,0.976 1.799,1.425 1.161,0.827 2.246,1.456 3.347,2.383 0.94,0.791 1.983,1.338 3.057,1.915 0.998,0.536 1.608,1.475 2.563,2.032 1.28,0.748 3.205,0.602 4.62,0.602 2.276,0 4.582,-0.254 6.855,-0.158 1.814,0.077 4.041,0.933 5.725,1.618 0.548,0.226 3.622,1.457 3.622,2.137 0,2.135 -0.236,4.42 0.016,6.54 0.104,0.876 0.616,2.036 1.144,2.759 0.309,0.423 0.726,0.678 0.993,1.147 0.294,0.521 0.385,1.138 0.655,1.667 0.355,0.699 0.824,1.339 1.17,2.047 0.241,0.492 0.313,1.062 0.594,1.517 0.468,0.755 1.045,1.246 1.385,2.135 0.289,0.755 0.532,1.248 1.084,1.848 1.667,1.812 2.116,3.888 3.027,6.105 1.826,4.448 3.906,8.909 7.185,12.491 2.215,2.419 5.453,3.583 7.929,5.655 0.643,0.538 1.143,1.173 1.83,1.66 0.44,0.313 0.495,0.241 0.529,0.843 0.025,0.424 -0.036,0.859 -0.078,1.281 -0.049,0.483 -0.204,0.809 -0.346,1.251 -0.174,0.549 -0.21,0.979 -0.518,1.483 -0.293,0.479 -0.423,0.687 -0.495,1.25 -0.127,0.987 -0.309,1.579 0.312,2.432 0.502,0.689 1.291,1.214 2.097,1.49 0.778,0.267 1.583,0.45 2.4,0.536 0.828,0.086 1.455,-0.075 2.231,0.307 1.005,0.494 1.86,1.023 2.251,2.062 0.413,1.093 1.062,2.139 1.768,3.063 0.894,1.177 1.94,2.111 2.878,3.247 0.487,0.59 0.982,1.187 1.621,1.628 0.373,0.261 0.871,0.357 1.26,0.557 0.45,0.228 0.906,0.425 1.371,0.634 0.835,0.374 1.728,0.619 2.571,0.979 1.295,0.558 2.26,1.013 3.681,1.127 2.683,0.222 5.294,0.268 7.98,0.268 0.677,0 1.241,-0.155 1.894,-0.188 0.923,-0.046 1.965,0.169 2.862,-0.077 1.389,-0.383 2.101,-1.324 1.791,-2.772 -0.243,-1.135 -1.42,-1.863 -2.416,-2.319 -0.051,-0.021 -0.102,-0.046 -0.151,-0.065 -1.254,-0.553 -2.335,-1.399 -3.612,-1.938 -1.462,-0.61 -2.326,-1.916 -2.667,-3.451 -0.625,-2.812 -0.608,-4.188 -0.688,-7.062 -0.041,-1.49 -0.137,-3.889 -0.186,-5.367 -0.06,-1.819 -0.553,-3.421 -0.903,-5.18 -0.383,-1.924 -0.442,-3.636 -0.442,-5.583 0,-0.25 0,-0.5 0,-0.75 0.099,-1.851 0.114,-3.614 -0.75,-4.5 0,-0.75 0,-1.501 0,-2.251 3.016,-0.122 4.579,3.342 5.482,5.688 0.637,1.657 1.129,3.37 1.592,5.082 0.221,0.815 0.125,1.381 0.165,2.175 0.047,0.966 0.692,1.854 1.065,2.717 0.5,1.151 1.894,1.866 2.979,2.478 1.281,0.719 2.857,0.333 4.29,0.475 0.972,0.098 2.038,0.192 3.061,0.231 2.734,0.104 5.102,0.995 7.823,1.336 3.049,0.382 6.512,0.229 9.179,-1.371 0.48,-0.288 0.996,-0.526 1.437,-0.88 0.483,-0.387 0.589,-0.768 0.994,-1.269 0.5,-0.617 1.268,-0.729 1.784,-1.312 0.628,-0.709 1.112,-1.456 1.774,-2.177 0.396,-0.433 0.973,-0.866 1.353,-1.347 0.417,-0.526 0.705,-1.136 1.158,-1.688 0.708,-0.864 1.338,-1.898 1.987,-2.825 0.709,-1.013 1.471,-1.988 2.278,-2.924 1.575,-1.828 3.324,-3.499 5.179,-5.04 1.87,-1.553 3.847,-2.974 5.866,-4.324 1.035,-0.69 2.084,-1.366 3.139,-2.03 0.688,-0.435 2.729,-1.229 3.094,-1.924 0.418,-0.792 0.926,-2.38 0.918,-3.003 -0.096,-8.287 2.902,-14.334 9.625,-19.062 5.039,-3.545 10.727,-6.317 15.812,-9.814 1.371,-0.941 2.578,-2.233 3.991,-3.087 0.658,-0.396 1.402,-0.938 1.947,-1.536 0.824,-0.903 1.576,-1.855 2.488,-2.669 0.838,-0.743 1.461,-1.609 2.219,-2.418 0.861,-0.917 1.152,-2.148 2.256,-2.886 1.058,-0.703 2.08,-2.487 3.117,-3.165 1.312,-0.859 5.289,-1.161 5.971,-3.062 1.095,-3.055 -2.676,-3.052 -5.389,-0.26 -3.756,3.868 -8.865,1.736 -13.979,1.921 -3.287,0.118 -8.965,1.666 -10.644,-2.039 -0.008,-4.141 5.354,-3.884 8.252,-5.251 4.664,-2.199 7.744,-5.077 14.002,-4.251 6.287,0.745 8.992,-0.508 10.75,-2.5 4.127,-2.523 4.828,-5.258 3.448,-8.182 z"
   id="path79" />

		<g
   id="g81"
   style="stroke:#b70000;stroke-width:10.97603893;stroke-miterlimit:4;stroke-opacity:1;stroke-dasharray:none">
			
				<radialGradient
   id="SVGID_7_"
   cx="219.72411"
   cy="532.35718"
   r="267.92981"
   gradientTransform="translate(0.2754,-408.033)"
   gradientUnits="userSpaceOnUse">
				<stop
   offset="0"
   style="stop-color: rgb(246, 232, 214);"
   id="stop84" />

				<stop
   offset="1"
   style="stop-color: rgb(241, 172, 113);"
   id="stop86" />

			</radialGradient>

			<path
   style="fill:url(#radialGradient6768);stroke:#b70000;stroke-width:10.97603893;stroke-miterlimit:4;stroke-opacity:1;stroke-dasharray:none"
   d="m 456.07,298.26 c -1.234,-2.932 0.578,-8.671 0.098,-12.932 -1.32,-3.68 -5.553,-6.946 -10.332,-7.167 -2.75,0 -4.584,0 -7.334,0 -2.637,0 -4.203,1.646 -5.996,3.257 -1.678,1.511 -5.049,1.268 -7.162,1.241 -2.246,-0.024 -4.324,-0.35 -6.408,-1.105 -2.079,-0.758 -4.743,-0.037 -6.928,-0.076 -2.342,-0.041 -4.67,0.231 -7.006,0.353 -1.816,0.092 -3.17,1.322 -4.752,2.125 -2.049,1.041 -2.348,0.873 -5,1.625 -2.178,0.617 -5.211,0.373 -7.357,1.145 -0.588,0.211 -1.075,0.556 -1.715,0.693 -0.471,0.104 -0.922,0.063 -1.399,0.239 -0.775,0.284 -1.625,0.497 -2.32,0.958 -0.285,0.188 -1.381,1.073 -1.406,1.396 -0.348,4.438 1.26,6.22 0,9.748 -3.953,0.922 -8.881,2.068 -10.547,2.901 -0.553,0.275 -1.072,0.609 -1.57,0.972 -2.354,1.695 -3.981,3.958 -6.012,5.952 -1.182,1.162 -4.332,2.469 -5.812,1.132 -1.582,-1.429 -0.195,-4.626 -0.123,-6.466 0.065,-1.726 -0.138,-4.075 -2.064,-4.674 -1.024,-0.315 -2.047,-0.31 -3.094,-0.494 -1.316,-0.229 -2.582,-0.736 -3.906,-0.925 -1.104,-0.155 -2.199,-0.004 -3.312,0.002 -0.838,0.005 -1.229,0.117 -1.97,0.367 -0.735,0.25 -1.536,0.197 -2.305,0.364 -0.688,0.147 -1.035,0.322 -1.617,0.76 -1.231,0.928 -1.821,2.626 -2.916,3.712 -1.274,1.268 -3.131,1.396 -4.825,1.281 -1.193,-0.081 -2.349,-0.386 -3.531,-0.481 -0.687,-0.056 -1.094,-0.157 -1.679,-0.507 -1.27,-0.755 -2.27,-2.213 -3.356,-3.247 -0.73,-0.69 -1.24,-0.995 -2.115,-1.511 -0.822,-0.484 -1.475,-0.812 -2.453,-0.993 -1.094,-0.202 -1.887,-0.803 -2.992,-0.996 -2.098,-0.364 -4.231,-0.358 -6.354,-0.345 -1.885,0.015 -3.693,-0.221 -5.578,-0.237 -1.084,-0.01 -2.244,-0.146 -3.305,0.148 -1.134,0.315 -2.161,0.387 -3.343,0.604 -1.791,0.333 -3.44,1.158 -4.938,2.178 -1.389,0.942 -3.059,1.984 -4.252,3.155 -1.27,1.245 -1.729,2.771 -2.738,4.146 -0.484,0.658 -1.035,1.229 -1.5,1.891 -0.875,1.241 -1.67,1.857 -3.211,2.019 -1.58,0.164 -3.162,-0.205 -4.695,-0.533 -1.639,-0.351 -3.342,-0.421 -5.016,-0.525 -1.588,-0.099 -2.941,-0.555 -4.508,-0.853 -2.178,-0.415 -5.189,-0.711 -7.342,-0.166 -1.082,0.271 -2.17,0.812 -2.8,1.688 -0.486,0.678 -1.035,1.527 -1.439,2.271 -0.447,0.816 -0.707,1.812 -1.11,2.64 -0.413,0.846 -1.065,1.562 -1.426,2.435 -0.384,0.925 -0.29,1.381 -1.036,2.121 -1.903,1.89 -4.041,3.527 -6.277,5.004 -2.129,1.402 -4.561,3.177 -6.942,4.095 -1.186,0.456 -2.419,0.544 -3.601,1.141 -1.198,0.604 -2.311,1.367 -3.525,1.94 -0.425,0.201 -0.857,0.384 -1.306,0.523 -1.235,0.39 -2.495,0.671 -3.769,0.896 -0.685,0.121 -1.183,0.521 -1.757,0.748 -1.911,0.751 -4.205,0.658 -6.244,0.781 -2.749,0.166 -5.387,-0.031 -8.15,-0.011 -1.712,0.017 -2.7,1.127 -4.172,1.697 -0.101,0.58 -0.901,0.693 -1.163,1.24 -0.77,1.606 -0.935,3.45 -0.786,5.207 0.12,1.415 -0.534,3.31 0.288,4.589 0.403,0.626 1.08,0.771 1.598,1.233 0.406,0.358 0.627,0.804 1.107,1.131 0.681,0.464 1.567,0.578 2.213,1.07 0.704,0.538 1.318,1.265 2.033,1.826 0.8,0.631 1.645,1.195 2.544,1.655 0.616,0.312 1.044,0.618 1.627,0.914 1.176,0.597 1.832,0.627 2.709,1.679 0.591,0.709 1.287,2.049 2.346,2.115 10.136,0.64 18.557,0.806 29.136,0.806 4.262,0 11.065,-0.333 15.321,-0.333 12.763,0 26.118,-0.555 38.806,-2.724 3.078,-0.526 6.539,-0.216 9.688,-0.564 3.071,-0.342 6.186,-0.92 9.209,-1.697 1.938,-0.5 4.258,-1.081 5.84,-1.939 2.312,-1.255 4.799,-2.574 7.281,-3.426 2.661,-0.913 5.883,-0.655 8.676,-0.92 4.062,-0.387 8.11,-0.901 12.182,-1.229 5.074,-0.407 10.633,-1.267 15.496,-2.999 3.699,-1.316 7.291,-2.011 11.004,-3.334 1.818,-0.646 4.688,-1.472 6.5,-2 2.979,-0.868 5.023,-1.626 7.978,-2.449 1.182,-0.327 2.039,-1.041 3.11,-1.473 1.484,-0.597 3.191,-0.598 4.707,-1.173 1.117,-0.425 2.004,-1.033 3.195,-1.127 1.193,-0.094 2.313,0.25 3.561,-0.102 2.365,-0.662 4.918,0.116 7.293,-0.646 2.775,-0.892 3.287,-2.209 5.025,-4.319 0.854,-1.037 1.057,-1.761 1.662,-2.837 0.584,-1.04 1.606,-1.497 2.301,-2.876 0.672,-1.337 2.644,-2.256 4.082,-2.46 3.068,-0.437 6.146,0.642 9.228,0.067 5.069,-0.941 5.356,-5.274 12.75,-4.5 1.108,-0.393 1.899,-1.11 3.012,-1.5 2.251,-3.966 1.59,-10.865 -0.009,-15.005 z"
   id="path88" />

			
				<radialGradient
   id="SVGID_8_"
   cx="219.71831"
   cy="532.36401"
   r="267.92969"
   gradientTransform="translate(0.2754,-408.033)"
   gradientUnits="userSpaceOnUse">
				<stop
   offset="0"
   style="stop-color: rgb(246, 232, 214);"
   id="stop91" />

				<stop
   offset="1"
   style="stop-color: rgb(241, 172, 113);"
   id="stop93" />

			</radialGradient>

			<path
   style="fill:url(#radialGradient6770);stroke:#b70000;stroke-width:10.97603893;stroke-miterlimit:4;stroke-opacity:1;stroke-dasharray:none"
   d="m 355,316.08 c 1.881,-0.857 4.645,8.684 4.75,10.75 0.105,2.071 -0.002,4.176 0,6.25 0.004,3.337 -0.545,3.315 -3.191,5.058 -1.604,1.055 -3.774,2.146 -5.312,3.431 -0.766,0.64 -0.799,1.339 -1.719,1.774 -0.884,0.422 -2.488,0.253 -3.332,0.629 -2.082,0.929 -3.422,2.058 -5.875,2.666 -2.549,0.632 -3.783,2.294 -6.043,3.204 -1.691,0.686 -3.043,0.456 -4.771,1.489 -1.531,0.917 -2.516,1.328 -4.213,2.043 -0.076,0.251 -0.014,0.45 -0.045,0.706"
   id="path95" />

		</g>

	</g>

</g>
    <g
       id="Tethys"
       transform="matrix(0.0599288,0,0,0.07944196,1.6666827,1.7158148)"
       style="fill:#008080">
	<path
   style="font-size:17px;fill:#008080;font-family:ArialMT"
   d="m 330.21042,194.3308 0,-10.73291 -4.00928,0 0,-1.43604 9.64551,0 0,1.43604 -4.02588,0 0,10.73291 -1.61035,0 z m 7.32959,0 0,-12.16895 8.79883,0 0,1.43604 -7.18848,0 0,3.72705 6.73193,0 0,1.42773 -6.73193,0 0,4.14209 7.4707,0 0,1.43604 -9.08105,0 z m 14.41846,0 0,-10.73291 -4.00928,0 0,-1.43604 9.64551,0 0,1.43604 -4.02588,0 0,10.73291 -1.61035,0 z m 7.34619,0 0,-12.16895 1.61035,0 0,4.99707 6.32519,0 0,-4.99707 1.61036,0 0,12.16895 -1.61036,0 0,-5.73584 -6.32519,0 0,5.73584 -1.61035,0 z m 15.66357,0 0,-5.15479 -4.68994,-7.01416 1.95898,0 2.39893,3.66895 c 0.4427,0.6862 0.85498,1.3724 1.23682,2.05859 0.36522,-0.63639 0.80793,-1.35302 1.32812,-2.1499 l 2.35742,-3.57764 1.87598,0 -4.85596,7.01416 0,5.15479 -1.61035,0 z m 7.3794,-3.90967 1.51904,-0.13282 c 0.0719,0.60873 0.23934,1.10816 0.5022,1.4983 0.26285,0.39013 0.67097,0.70556 1.22436,0.94628 0.55338,0.24073 1.17594,0.36109 1.86768,0.36109 0.61425,0 1.15657,-0.0913 1.62695,-0.27393 0.47037,-0.18261 0.82039,-0.43302 1.05005,-0.75122 0.22965,-0.31819 0.34447,-0.66544 0.34448,-1.04175 -1e-5,-0.38183 -0.11068,-0.71524 -0.33203,-1.00024 -0.22136,-0.28499 -0.5866,-0.52433 -1.0957,-0.71802 -0.32651,-0.12727 -1.04867,-0.32511 -2.16651,-0.5935 -1.11784,-0.26839 -1.90088,-0.52156 -2.34912,-0.75952 -0.58106,-0.30436 -1.01408,-0.68205 -1.29907,-1.13306 -0.285,-0.451 -0.42749,-0.95597 -0.42749,-1.51489 0,-0.61425 0.17431,-1.18839 0.52295,-1.72242 0.34863,-0.534 0.85774,-0.93936 1.52734,-1.21606 0.66959,-0.27668 1.4139,-0.41503 2.23291,-0.41504 0.90201,1e-5 1.69751,0.14528 2.38648,0.43579 0.68895,0.29054 1.21882,0.71803 1.5896,1.28247 0.37076,0.56447 0.56997,1.20362 0.59765,1.91748 l -1.54394,0.11621 c -0.083,-0.76919 -0.36386,-1.35025 -0.84253,-1.74316 -0.47869,-0.39289 -1.18564,-0.58935 -2.12085,-0.58936 -0.97396,1e-5 -1.68368,0.17848 -2.12915,0.5354 -0.44548,0.35695 -0.66822,0.7872 -0.66821,1.29078 -10e-6,0.43718 0.15771,0.79688 0.47314,1.0791 0.30989,0.28223 1.11922,0.57138 2.42798,0.86743 1.30875,0.29607 2.20662,0.55477 2.6936,0.77612 0.70833,0.32651 1.23128,0.74016 1.56885,1.24097 0.33755,0.50082 0.50634,1.07772 0.50635,1.73071 -1e-5,0.64747 -0.1854,1.25757 -0.55615,1.83032 -0.37078,0.57276 -0.90342,1.01823 -1.59791,1.33643 -0.6945,0.3182 -1.47616,0.47729 -2.34497,0.47729 -1.10124,0 -2.02401,-0.16048 -2.76831,-0.48144 -0.7443,-0.32096 -1.32812,-0.80379 -1.75146,-1.44849 -0.42334,-0.64469 -0.64608,-1.37377 -0.66821,-2.18725 l 0,0 z m 11.13134,0.25732 0,-1.50244 4.59034,0 0,1.50244 -4.59034,0 z"
   id="text98" />


	<path
   style="font-size:17px;fill:#008080;font-family:ArialMT"
   d="m 339.58591,214.73019 0,-12.16894 2.42383,0 2.88037,8.61621 c 0.26561,0.80241 0.4593,1.40283 0.58105,1.80127 0.13834,-0.44271 0.35416,-1.09293 0.64746,-1.95068 l 2.91358,-8.4668 2.1665,0 0,12.16894 -1.55225,0 0,-10.18505 -3.53613,10.18505 -1.45264,0 -3.51953,-10.35937 0,10.35937 -1.55224,0 z m 14.26074,0 0,-12.16894 8.79883,0 0,1.43603 -7.18848,0 0,3.72705 6.73193,0 0,1.42774 -6.73193,0 0,4.14209 7.4707,0 0,1.43603 -9.08105,0 z m 11.34717,0 0,-12.16894 5.3955,0 c 1.08463,1e-5 1.90918,0.1093 2.47364,0.32788 0.56444,0.2186 1.01545,0.60458 1.35303,1.15796 0.33755,0.55339 0.50633,1.16488 0.50634,1.83447 -10e-6,0.86329 -0.27947,1.59099 -0.83838,2.18311 -0.55893,0.59213 -1.42221,0.96843 -2.58984,1.1289 0.4261,0.20476 0.74983,0.40675 0.97119,0.60596 0.47037,0.43165 0.91584,0.9712 1.33643,1.61865 l 2.1167,3.31201 -2.02539,0 -1.61036,-2.53173 c -0.47038,-0.73047 -0.85775,-1.28939 -1.16211,-1.67676 -0.30436,-0.38737 -0.57691,-0.65853 -0.81762,-0.81348 -0.24073,-0.15494 -0.4856,-0.26285 -0.73462,-0.32373 -0.18262,-0.0387 -0.48145,-0.0581 -0.89649,-0.0581 l -1.86767,0 0,5.4038 -1.61035,0 z m 1.61035,-6.79834 3.46142,0 c 0.736,1e-5 1.31152,-0.0761 1.72657,-0.22827 0.41503,-0.15217 0.73046,-0.39566 0.94629,-0.73047 0.21581,-0.33479 0.32372,-0.69864 0.32373,-1.09155 -10e-6,-0.57551 -0.20892,-1.04865 -0.62671,-1.41943 -0.41782,-0.37076 -1.07773,-0.55614 -1.97974,-0.55615 l -3.85156,0 0,4.02587 z m 10.92383,6.79834 0,-12.16894 1.61035,0 0,12.16894 -1.61035,0 z"
   id="text100" />


</g>
    <g
       id="Laurasia"
       style="fill:#800000"
       transform="matrix(0.0599288,0,0,0.07944196,0.22454999,2.1699152)">
	<path
   transform="translate(190.332,109.717)"
   style="font-size:29px;fill:#800000;font-family:Arial-BoldMT"
   d="m 2.1240234,0 0,-20.758789 2.7470704,0 0,18.309082 10.2236332,0 0,2.449707 -12.9707036,0 z m 13.9760746,0 7.972168,-20.758789 2.959472,0 L 35.527832,0 l -3.129394,0 -2.421387,-6.2871094 -8.680176,0 L 19.01709,0 16.100098,0 z m 5.989746,-8.5244141 7.037597,0 -2.166503,-5.7490239 c -0.660818,-1.746403 -1.151703,-3.181297 -1.472657,-4.304687 -0.264332,1.331072 -0.637215,2.652685 -1.118652,3.964844 l -2.279785,6.0888669 z m 29.283203,-12.2343749 2.74707,0 0,11.9936523 c -1.8e-5,2.0862697 -0.236021,3.7430063 -0.708008,4.9702148 -0.472022,1.2272161 -1.323991,2.2255062 -2.555908,2.99487307 -1.231948,0.76936852 -2.848564,1.15405238 -4.849853,1.15405274 -1.94467,-3.6e-7 -3.535326,-0.33512372 -4.771973,-1.0053711 C 39.997717,-1.3216133 39.115068,-2.291583 38.586426,-3.5612793 38.057777,-4.8309685 37.793455,-6.5655859 37.793457,-8.7651367 l 0,-11.9936523 2.74707,0 0,11.9794921 c -5e-6,1.8030669 0.167557,3.1317602 0.502686,3.986084 0.335118,0.8543334 0.910964,1.51278 1.727539,1.9753418 0.816561,0.4625675 1.814851,0.6938498 2.994873,0.6938477 2.02017,2.1e-6 3.459784,-0.4578425 4.318848,-1.3735352 0.859034,-0.9156857 1.288558,-2.6762634 1.288574,-5.2817383 l 0,-11.9794921 z M 58.750488,0 l 0,-20.758789 9.204102,0 c 1.850247,2.1e-5 3.256821,0.186463 4.219726,0.559326 0.962874,0.372904 1.732242,1.031351 2.308106,1.975342 0.575828,0.944028 0.863751,1.987158 0.863769,3.129394 -1.8e-5,1.47267 -0.476743,2.714043 -1.430175,3.724122 -0.953467,1.010101 -2.426122,1.6520275 -4.417969,1.9257808 0.726874,0.3492929 1.27912,0.6938564 1.656738,1.0336914 0.802394,0.7363358 1.562321,1.656745 2.279785,2.7612305 L 77.04541,0 73.590332,0 70.843262,-4.3188477 c -0.802423,-1.2460881 -1.463229,-2.1995377 -1.982422,-2.8603515 -0.519218,-0.6607995 -0.984142,-1.1233641 -1.394776,-1.3876953 -0.410655,-0.2643141 -0.828379,-0.448396 -1.253173,-0.5522461 -0.311533,-0.066072 -0.821298,-0.099112 -1.529297,-0.099121 l -3.186035,0 0,9.218261699999999 -2.747071,0 z m 2.747071,-11.597168 5.904785,0 c 1.255521,1.2e-5 2.237291,-0.12979 2.945312,-0.389404 0.707993,-0.259591 1.246079,-0.674955 1.614258,-1.246094 0.368148,-0.571113 0.55223,-1.191799 0.552246,-1.862061 -1.6e-5,-0.981754 -0.356379,-1.788882 -1.069092,-2.421386 -0.712742,-0.632469 -1.838473,-0.948712 -3.377197,-0.948731 l -6.570312,0 0,6.867676 z M 77.385254,0 l 7.972168,-20.758789 2.959473,0 L 96.812988,0 l -3.129394,0 -2.421387,-6.2871094 -8.680176,0 L 80.302246,0 77.385254,0 z m 5.989746,-8.5244141 7.037598,0 -2.166504,-5.7490239 c -0.660818,-1.746403 -1.151703,-3.181297 -1.472656,-4.304687 -0.264332,1.331072 -0.637216,2.652685 -1.118653,3.964844 L 83.375,-8.5244141 z M 96.756348,0 l 7.972172,-20.758789 2.95947,0 L 116.18408,0 l -3.12939,0 -2.42139,-6.2871094 -8.68018,0 L 99.67334,0 96.756348,0 z m 5.989742,-8.5244141 7.0376,0 -2.1665,-5.7490239 c -0.66082,-1.746403 -1.1517,-3.181297 -1.47266,-4.304687 -0.26433,1.331072 -0.63721,2.652685 -1.11865,3.964844 l -2.27979,6.0888669 z m 14.72657,1.8549805 2.5913,-0.2265625 c 0.12272,1.0384173 0.40829,1.8903859 0.85669,2.5559082 0.4484,0.665531 1.14461,1.2036164 2.08863,1.6142578 0.944,0.4106469 2.00601,0.6159689 3.18603,0.6159668 1.04784,2.1e-6 1.97297,-0.1557594 2.77539,-0.4672851 0.8024,-0.3115206 1.39948,-0.7386849 1.79126,-1.2814942 0.39175,-0.5428016 0.58763,-1.1351675 0.58765,-1.7770996 -2e-5,-0.6513609 -0.18882,-1.2201266 -0.56641,-1.7062988 -0.37762,-0.4861576 -1.00066,-0.8944416 -1.86914,-1.2248535 -0.55698,-0.2171136 -1.78891,-0.554597 -3.6958,-1.0124512 -1.90691,-0.4578353 -3.24268,-0.8897193 -4.00732,-1.2956543 -0.99122,-0.519194 -1.7299,-1.163481 -2.21607,-1.932861 -0.48616,-0.769355 -0.72925,-1.630764 -0.72925,-2.584229 0,-1.047835 0.29737,-2.027245 0.89209,-2.938232 0.59473,-0.910951 1.46322,-1.602438 2.60547,-2.074463 1.14225,-0.471984 2.41194,-0.707987 3.80909,-0.708008 1.53872,2.1e-5 2.89574,0.247824 4.07104,0.743408 1.17528,0.495626 2.07917,1.224873 2.71167,2.187744 0.63247,0.962908 0.97231,2.053239 1.01953,3.270996 l -2.63379,0.198243 c -0.14161,-1.312159 -0.6207,-2.303369 -1.43725,-2.973633 -0.81658,-0.670229 -2.02256,-1.005353 -3.61792,-1.005371 -1.66147,1.8e-5 -2.87216,0.304461 -3.63208,0.91333 -0.75994,0.608904 -1.1399,1.342871 -1.1399,2.201904 0,0.745783 0.26904,1.359389 0.80713,1.84082 0.52864,0.481459 1.90926,0.974704 4.14185,1.479737 2.23257,0.505057 3.76423,0.946382 4.59497,1.323974 1.20832,0.556977 2.10041,1.262624 2.67627,2.1169437 0.57583,0.8543374 0.86375,1.8384673 0.86377,2.9523926 -2e-5,1.104497 -0.31626,2.1452674 -0.94873,3.1223145 -0.63251,0.9770525 -1.54111,1.7369801 -2.72583,2.27978512 -1.18475,0.54280591 -2.51816,0.81420863 -4.00025,0.81420899 -1.87859,-3.6e-7 -3.45272,-0.27376311 -4.72241,-0.82128907 -1.2697,-0.54752504 -2.26563,-1.37117324 -2.98779,-2.47094724 -0.72217,-1.0997681 -1.10213,-2.3435006 -1.13989,-3.7312012 l 0,0 z M 138.24561,0 l 0,-20.758789 2.74707,0 0,20.758789 -2.74707,0 z m 5.29589,0 7.97217,-20.758789 2.95947,0 L 162.96924,0 l -3.1294,0 -2.42138,-6.2871094 -8.68018,0 L 146.4585,0 l -2.917,0 z m 5.98975,-8.5244141 7.0376,0 -2.16651,-5.7490239 c -0.66081,-1.746403 -1.1517,-3.181297 -1.47265,-4.304687 -0.26433,1.331072 -0.63722,2.652685 -1.11865,3.964844 l -2.27979,6.0888669 z"
   id="text108" />


</g>
    <g
       id="Gondwana"
       style="fill:#800000"
       transform="matrix(0.0599288,0,0,0.07944196,0.51060216,-0.3860266)">
	<path
   transform="matrix(0.866,0.5,-0.5,0.866,150.459,255.224)"
   style="font-size:29px;fill:#800000;font-family:Arial-BoldMT"
   d="m 11.951172,-8.1420898 0,-2.4355472 8.793457,-0.01416 0,7.7031251 c -1.349954,1.0761737 -2.742368,1.8856618 -4.177246,2.42846682 -1.434911,0.54280591 -2.907566,0.81420863 -4.417969,0.81420899 -2.039073,-3.6e-7 -3.8916911,-0.43660474 -5.5578613,-1.30981446 C 4.9253694,-1.8290184 3.6674768,-3.091631 2.8178711,-4.7436523 1.9682598,-6.3956642 1.5434555,-8.2412027 1.543457,-10.280273 c -1.5e-6,-2.02017 0.4224427,-3.905829 1.267334,-5.656983 0.8448857,-1.751121 2.0602979,-3.051495 3.6462402,-3.901123 1.5859295,-0.849589 3.4125878,-1.274393 5.4799808,-1.274414 1.500963,2.1e-5 2.857976,0.243104 4.071045,0.729248 1.213036,0.486185 2.164125,1.163512 2.853271,2.031983 0.689108,0.868507 1.213033,2.001318 1.571777,3.398437 l -2.478027,0.679687 c -0.311541,-1.057276 -0.698585,-1.888004 -1.161133,-2.492187 -0.462581,-0.604149 -1.123388,-1.087954 -1.982422,-1.451416 -0.859063,-0.363425 -1.812513,-0.545147 -2.860351,-0.545166 -1.255545,1.9e-5 -2.3411556,0.191181 -3.2568361,0.573486 -0.9156978,0.382342 -1.6543853,0.885027 -2.2160644,1.508057 -0.5616921,0.623063 -0.9982965,1.30747 -1.3098145,2.053223 -0.5286504,1.283867 -0.7929731,2.676281 -0.7929687,4.177246 -4.4e-6,1.8502687 0.3185988,3.3984442 0.9558105,4.6445309 0.6372011,1.2460983 1.5646904,2.1712276 2.7824707,2.7753907 1.2177641,0.6041691 2.5110575,0.9062521 3.8798825,0.90625 1.18944,2.1e-6 2.350572,-0.2289202 3.483399,-0.6867676 1.132796,-0.4578418 1.991844,-0.9463667 2.577148,-1.4655762 l 0,-3.8657226 -6.103027,0 z m 11.993652,-1.9682622 c -1e-6,-3.445624 0.925128,-6.143131 2.775391,-8.092529 1.850254,-1.949361 4.238598,-2.924051 7.165039,-2.924072 1.916328,2.1e-5 3.643865,0.457866 5.182617,1.373535 1.538719,0.915709 2.711651,2.192482 3.518799,3.830322 0.807108,1.637873 1.210672,3.495211 1.210693,5.572022 -2.1e-5,2.1051513 -0.424825,3.9884502 -1.274414,5.6499021 -0.849628,1.6614614 -2.05324,2.919354 -3.61084,3.77368167 -1.557632,0.8543295 -3.237968,1.28149378 -5.041015,1.28149414 -1.954111,-3.6e-7 -3.700529,-0.47200509 -5.239258,-1.41601561 -1.538742,-0.9440084 -2.704593,-2.2325814 -3.497559,-3.8657227 -0.79297,-1.6331314 -1.189454,-3.3606688 -1.189453,-5.1826176 l 0,0 z m 2.832031,0.04248 c -4e-6,2.5016351 0.672603,4.4722549 2.017823,5.9118651 1.345207,1.4396186 3.032624,2.1594259 5.062256,2.1594239 2.067369,2e-6 3.768946,-0.7268853 5.104736,-2.1806641 1.335757,-1.4537704 2.003644,-3.5164311 2.003662,-6.1879879 -1.8e-5,-1.689767 -0.285581,-3.164782 -0.856689,-4.425049 -0.571144,-1.260238 -1.406592,-2.237288 -2.506348,-2.931153 -1.099786,-0.693829 -2.334079,-1.040752 -3.702881,-1.040771 -1.944671,1.9e-5 -3.617928,0.667905 -5.019775,2.003662 -1.401861,1.33579 -2.102788,3.566013 -2.102784,6.690674 l 0,0 z M 47.294922,0 l 0,-20.758789 2.817871,0 10.90332,16.2983398 0,-16.2983398 2.633789,0 0,20.758789 -2.817871,0 -10.90332,-16.3125 0,16.3125 -2.633789,0 z m 20.985351,0 0,-20.758789 7.150879,0 c 1.614247,2.1e-5 2.84618,0.09914 3.695801,0.297363 1.189439,0.273783 2.204249,0.769388 3.044434,1.486817 1.095035,0.925148 1.913963,2.10752 2.456787,3.547119 0.542787,1.43963 0.814189,3.084566 0.814209,4.934814 -2e-5,1.5765065 -0.184101,2.9736406 -0.552246,4.1914065 -0.368183,1.2177785 -0.840188,2.2255086 -1.416016,3.0231933 -0.575863,0.7976913 -1.205989,1.4254576 -1.890381,1.8833008 -0.684422,0.457846 -1.51043,0.80476948 -2.478027,1.04077149 C 78.13809,-0.11800118 77.026519,0 75.770996,0 l -7.490723,0 z m 2.747071,-2.449707 4.432129,0 c 1.368804,2.4e-6 2.442615,-0.1274389 3.221435,-0.3823242 0.778795,-0.2548798 1.399482,-0.6136034 1.862061,-1.0761719 0.651352,-0.6513627 1.158757,-1.5269314 1.522217,-2.626709 0.363427,-1.0997645 0.545149,-2.4331779 0.545166,-4.0002439 -1.7e-5,-2.171212 -0.356381,-3.839748 -1.069092,-5.005615 -0.712743,-1.165837 -1.578872,-1.947004 -2.598389,-2.343506 -0.73634,-0.283185 -1.921072,-0.424787 -3.554199,-0.424805 l -4.361328,0 0,15.859375 z M 92.862305,0 l -5.508301,-20.758789 2.817871,0 3.157715,13.6079101 c 0.339837,1.4254614 0.63248,2.8414757 0.87793,4.2480469 0.528638,-2.2184194 0.840161,-3.4975522 0.93457,-3.8374024 l 3.950683,-14.0185546 3.313477,0 2.97363,10.506836 c 0.74575,2.6054763 1.28384,5.0551809 1.61426,7.349121 0.2643,-1.3121703 0.60887,-2.8178654 1.03369,-4.5170899 l 3.25684,-13.3388671 2.76123,0 L 108.35352,0 l -2.64795,0 -4.37549,-15.816895 c -0.36818,-1.321597 -0.5853,-2.133445 -0.65137,-2.435546 -0.21713,0.953467 -0.4201,1.765316 -0.60889,2.435546 L 95.666016,0 92.862305,0 z m 21.452635,0 7.97217,-20.758789 2.95947,0 L 133.74268,0 l -3.1294,0 -2.42139,-6.2871094 -8.68017,0 L 117.23193,0 114.31494,0 z m 5.98975,-8.5244141 7.0376,0 -2.16651,-5.7490239 c -0.66082,-1.746403 -1.1517,-3.181297 -1.47266,-4.304687 -0.26433,1.331072 -0.63721,2.652685 -1.11865,3.964844 l -2.27978,6.0888669 z M 135.9375,0 l 0,-20.758789 2.81787,0 10.90332,16.2983398 0,-16.2983398 2.63379,0 0,20.758789 -2.81787,0 -10.90332,-16.3125 0,16.3125 -2.63379,0 z m 18.70557,0 7.97216,-20.758789 2.95948,0 L 174.0708,0 l -3.12939,0 -2.42139,-6.2871094 -8.68018,0 L 157.56006,0 154.64307,0 z m 5.98974,-8.5244141 7.0376,0 -2.1665,-5.7490239 c -0.66082,-1.746403 -1.15171,-3.181297 -1.47266,-4.304687 -0.26433,1.331072 -0.63722,2.652685 -1.11865,3.964844 l -2.27979,6.0888669 z"
   id="text111" />


</g>
  </g>
</svg>
