<?xml version="1.0" encoding="UTF-8" standalone="no"?>
<!-- Created with Inkscape (http://www.inkscape.org/) -->

<svg
   xmlns:dc="http://purl.org/dc/elements/1.1/"
   xmlns:cc="http://creativecommons.org/ns#"
   xmlns:rdf="http://www.w3.org/1999/02/22-rdf-syntax-ns#"
   xmlns:svg="http://www.w3.org/2000/svg"
   xmlns="http://www.w3.org/2000/svg"
   xmlns:xlink="http://www.w3.org/1999/xlink"
   xmlns:sodipodi="http://sodipodi.sourceforge.net/DTD/sodipodi-0.dtd"
   xmlns:inkscape="http://www.inkscape.org/namespaces/inkscape"
   width="32px"
   height="32px"
   id="svg5296"
   version="1.1"
   inkscape:version="0.47 r22583"
   sodipodi:docname="web-upload.svg"
   inkscape:export-filename="/home/damien/src/phraymd/icons/phraymd-web-upload.png"
   inkscape:export-xdpi="360"
   inkscape:export-ydpi="360">
  <defs
     id="defs5298">
    <inkscape:perspective
       sodipodi:type="inkscape:persp3d"
       inkscape:vp_x="0 : 16 : 1"
       inkscape:vp_y="0 : 1000 : 0"
       inkscape:vp_z="32 : 16 : 1"
       inkscape:persp3d-origin="16 : 10.666667 : 1"
       id="perspective5304" />
    <radialGradient
       inkscape:collect="always"
       xlink:href="#linearGradient8838"
       id="radialGradient9169"
       gradientUnits="userSpaceOnUse"
       gradientTransform="matrix(1,0,0,0.341176,0,3.047059)"
       cx="62.625"
       cy="4.625"
       fx="62.625"
       fy="4.625"
       r="10.625" />
    <linearGradient
       inkscape:collect="always"
       id="linearGradient8838">
      <stop
         style="stop-color:#000000;stop-opacity:1;"
         offset="0"
         id="stop8840" />
      <stop
         style="stop-color:#000000;stop-opacity:0;"
         offset="1"
         id="stop8842" />
    </linearGradient>
    <radialGradient
       inkscape:collect="always"
       xlink:href="#linearGradient8647"
       id="radialGradient9171"
       gradientUnits="userSpaceOnUse"
       gradientTransform="matrix(1.1281223,0,0,1.1281218,-8.0191522,1.2305282)"
       cx="62.200352"
       cy="-8.7256308"
       fx="62.200352"
       fy="-8.7256308"
       r="9.7552835" />
    <linearGradient
       id="linearGradient8647">
      <stop
         style="stop-color:#8fb1dc;stop-opacity:1;"
         offset="0"
         id="stop8649" />
      <stop
         style="stop-color:#3465a4;stop-opacity:1;"
         offset="1"
         id="stop8651" />
    </linearGradient>
    <linearGradient
       gradientTransform="matrix(1.0105396,0,0,1.0105166,-0.7055706,0.1763703)"
       gradientUnits="userSpaceOnUse"
       y2="6.8052397"
       x2="62.200409"
       y1="-12.963596"
       x1="62.200409"
       id="linearGradient4879"
       xlink:href="#linearGradient4873"
       inkscape:collect="always" />
    <linearGradient
       id="linearGradient4873"
       inkscape:collect="always">
      <stop
         id="stop4875"
         offset="0"
         style="stop-color:#ffffff;stop-opacity:1;" />
      <stop
         id="stop4877"
         offset="1"
         style="stop-color:#ffffff;stop-opacity:0;" />
    </linearGradient>
    <radialGradient
       inkscape:collect="always"
       xlink:href="#linearGradient8740"
       id="radialGradient8748"
       gradientUnits="userSpaceOnUse"
       gradientTransform="matrix(1,0,0,0.930233,0,-0.240141)"
       cx="62.225393"
       cy="-3.4420195"
       fx="62.225393"
       fy="-3.4420195"
       r="10.081216" />
    <linearGradient
       inkscape:collect="always"
       id="linearGradient8740">
      <stop
         style="stop-color:#ffffff;stop-opacity:1;"
         offset="0"
         id="stop8742" />
      <stop
         style="stop-color:#ffffff;stop-opacity:0;"
         offset="1"
         id="stop8744" />
    </linearGradient>
    <radialGradient
       inkscape:collect="always"
       xlink:href="#linearGradient8740"
       id="radialGradient8750"
       gradientUnits="userSpaceOnUse"
       gradientTransform="matrix(1,0,0,0.930233,0,-0.240141)"
       cx="62.225393"
       cy="-3.4420195"
       fx="62.225393"
       fy="-3.4420195"
       r="10.081216" />
    <radialGradient
       inkscape:collect="always"
       xlink:href="#linearGradient8740"
       id="radialGradient8752"
       gradientUnits="userSpaceOnUse"
       gradientTransform="matrix(1,0,0,0.930233,0,-0.240141)"
       cx="62.225393"
       cy="-3.4420195"
       fx="62.225393"
       fy="-3.4420195"
       r="10.081216" />
    <radialGradient
       inkscape:collect="always"
       xlink:href="#linearGradient8740"
       id="radialGradient9173"
       gradientUnits="userSpaceOnUse"
       gradientTransform="matrix(1,0,0,0.930233,0,-0.240141)"
       cx="62.225393"
       cy="-3.4420195"
       fx="62.225393"
       fy="-3.4420195"
       r="10.081216" />
    <radialGradient
       inkscape:collect="always"
       xlink:href="#linearGradient8740"
       id="radialGradient8756"
       gradientUnits="userSpaceOnUse"
       gradientTransform="matrix(1,0,0,0.930233,0,-0.240141)"
       cx="62.225393"
       cy="-3.4420195"
       fx="62.225393"
       fy="-3.4420195"
       r="10.081216" />
    <radialGradient
       inkscape:collect="always"
       xlink:href="#linearGradient8740"
       id="radialGradient8758"
       gradientUnits="userSpaceOnUse"
       gradientTransform="matrix(1,0,0,0.930233,0,-0.240141)"
       cx="62.225393"
       cy="-3.4420195"
       fx="62.225393"
       fy="-3.4420195"
       r="10.081216" />
    <radialGradient
       inkscape:collect="always"
       xlink:href="#linearGradient8740"
       id="radialGradient8760"
       gradientUnits="userSpaceOnUse"
       gradientTransform="matrix(1,0,0,0.930233,0,-0.240141)"
       cx="62.225393"
       cy="-3.4420195"
       fx="62.225393"
       fy="-3.4420195"
       r="10.081216" />
    <radialGradient
       inkscape:collect="always"
       xlink:href="#linearGradient8740"
       id="radialGradient9175"
       gradientUnits="userSpaceOnUse"
       gradientTransform="matrix(1,0,0,0.930233,0,-0.240141)"
       cx="62.225393"
       cy="-3.4420195"
       fx="62.225393"
       fy="-3.4420195"
       r="10.081216" />
    <radialGradient
       inkscape:collect="always"
       xlink:href="#linearGradient8740"
       id="radialGradient8764"
       gradientUnits="userSpaceOnUse"
       gradientTransform="matrix(1,0,0,0.930233,0,-0.240141)"
       cx="62.225393"
       cy="-3.4420195"
       fx="62.225393"
       fy="-3.4420195"
       r="10.081216" />
    <radialGradient
       inkscape:collect="always"
       xlink:href="#linearGradient8740"
       id="radialGradient8766"
       gradientUnits="userSpaceOnUse"
       gradientTransform="matrix(1,0,0,0.930233,0,-0.240141)"
       cx="62.225393"
       cy="-3.4420195"
       fx="62.225393"
       fy="-3.4420195"
       r="10.081216" />
    <radialGradient
       inkscape:collect="always"
       xlink:href="#linearGradient8740"
       id="radialGradient9177"
       gradientUnits="userSpaceOnUse"
       gradientTransform="matrix(1,0,0,0.930233,0,-0.240141)"
       cx="62.225393"
       cy="-3.4420195"
       fx="62.225393"
       fy="-3.4420195"
       r="10.081216" />
    <radialGradient
       inkscape:collect="always"
       xlink:href="#linearGradient8740"
       id="radialGradient8770"
       gradientUnits="userSpaceOnUse"
       gradientTransform="matrix(1,0,0,0.930233,0,-0.240141)"
       cx="62.225393"
       cy="-3.4420195"
       fx="62.225393"
       fy="-3.4420195"
       r="10.081216" />
    <radialGradient
       inkscape:collect="always"
       xlink:href="#linearGradient8740"
       id="radialGradient8772"
       gradientUnits="userSpaceOnUse"
       gradientTransform="matrix(1,0,0,0.930233,0,-0.240141)"
       cx="62.225393"
       cy="-3.4420195"
       fx="62.225393"
       fy="-3.4420195"
       r="10.081216" />
    <radialGradient
       inkscape:collect="always"
       xlink:href="#linearGradient8740"
       id="radialGradient8774"
       gradientUnits="userSpaceOnUse"
       gradientTransform="matrix(1,0,0,0.930233,0,-0.240141)"
       cx="62.225393"
       cy="-3.4420195"
       fx="62.225393"
       fy="-3.4420195"
       r="10.081216" />
    <radialGradient
       inkscape:collect="always"
       xlink:href="#linearGradient8740"
       id="radialGradient9179"
       gradientUnits="userSpaceOnUse"
       gradientTransform="matrix(1,0,0,0.930233,0,-0.240141)"
       cx="62.225393"
       cy="-3.4420195"
       fx="62.225393"
       fy="-3.4420195"
       r="10.081216" />
    <radialGradient
       inkscape:collect="always"
       xlink:href="#linearGradient8740"
       id="radialGradient8778"
       gradientUnits="userSpaceOnUse"
       gradientTransform="matrix(1,0,0,0.930233,0,-0.240141)"
       cx="62.225393"
       cy="-3.4420195"
       fx="62.225393"
       fy="-3.4420195"
       r="10.081216" />
    <radialGradient
       inkscape:collect="always"
       xlink:href="#linearGradient8740"
       id="radialGradient8780"
       gradientUnits="userSpaceOnUse"
       gradientTransform="matrix(1,0,0,0.930233,0,-0.240141)"
       cx="62.225393"
       cy="-3.4420195"
       fx="62.225393"
       fy="-3.4420195"
       r="10.081216" />
    <radialGradient
       inkscape:collect="always"
       xlink:href="#linearGradient8740"
       id="radialGradient8782"
       gradientUnits="userSpaceOnUse"
       gradientTransform="matrix(1,0,0,0.930233,0,-0.240141)"
       cx="62.225393"
       cy="-3.4420195"
       fx="62.225393"
       fy="-3.4420195"
       r="10.081216" />
    <radialGradient
       inkscape:collect="always"
       xlink:href="#linearGradient8740"
       id="radialGradient9181"
       gradientUnits="userSpaceOnUse"
       gradientTransform="matrix(1,0,0,0.930233,0,0.79739)"
       cx="62.225393"
       cy="-3.4420195"
       fx="62.225393"
       fy="-3.4420195"
       r="10.081216" />
    <radialGradient
       inkscape:collect="always"
       xlink:href="#linearGradient8740"
       id="radialGradient8786"
       gradientUnits="userSpaceOnUse"
       gradientTransform="matrix(1,0,0,0.930233,0,-0.240141)"
       cx="62.225393"
       cy="-3.4420195"
       fx="62.225393"
       fy="-3.4420195"
       r="10.081216" />
    <radialGradient
       inkscape:collect="always"
       xlink:href="#linearGradient8740"
       id="radialGradient8788"
       gradientUnits="userSpaceOnUse"
       gradientTransform="matrix(1,0,0,0.930233,0,-0.240141)"
       cx="62.225393"
       cy="-3.4420195"
       fx="62.225393"
       fy="-3.4420195"
       r="10.081216" />
    <radialGradient
       inkscape:collect="always"
       xlink:href="#linearGradient8740"
       id="radialGradient9183"
       gradientUnits="userSpaceOnUse"
       gradientTransform="matrix(1,0,0,0.930233,0,-0.240141)"
       cx="62.225393"
       cy="-3.4420195"
       fx="62.225393"
       fy="-3.4420195"
       r="10.081216" />
    <radialGradient
       inkscape:collect="always"
       xlink:href="#linearGradient8740"
       id="radialGradient8792"
       gradientUnits="userSpaceOnUse"
       gradientTransform="matrix(1,0,0,0.930233,0,-0.240141)"
       cx="62.225393"
       cy="-3.4420195"
       fx="62.225393"
       fy="-3.4420195"
       r="10.081216" />
    <radialGradient
       inkscape:collect="always"
       xlink:href="#linearGradient8740"
       id="radialGradient8794"
       gradientUnits="userSpaceOnUse"
       gradientTransform="matrix(1,0,0,0.930233,0,-0.240141)"
       cx="62.225393"
       cy="-3.4420195"
       fx="62.225393"
       fy="-3.4420195"
       r="10.081216" />
    <radialGradient
       inkscape:collect="always"
       xlink:href="#linearGradient8740"
       id="radialGradient8796"
       gradientUnits="userSpaceOnUse"
       gradientTransform="matrix(1,0,0,0.930233,0,-0.240141)"
       cx="62.225393"
       cy="-3.4420195"
       fx="62.225393"
       fy="-3.4420195"
       r="10.081216" />
    <radialGradient
       inkscape:collect="always"
       xlink:href="#linearGradient8740"
       id="radialGradient8798"
       gradientUnits="userSpaceOnUse"
       gradientTransform="matrix(1,0,0,0.930233,0,-0.240141)"
       cx="62.225393"
       cy="-3.4420195"
       fx="62.225393"
       fy="-3.4420195"
       r="10.081216" />
    <radialGradient
       inkscape:collect="always"
       xlink:href="#linearGradient8740"
       id="radialGradient8800"
       gradientUnits="userSpaceOnUse"
       gradientTransform="matrix(1,0,0,0.930233,0,-0.240141)"
       cx="62.225393"
       cy="-3.4420195"
       fx="62.225393"
       fy="-3.4420195"
       r="10.081216" />
    <radialGradient
       inkscape:collect="always"
       xlink:href="#linearGradient8740"
       id="radialGradient8802"
       gradientUnits="userSpaceOnUse"
       gradientTransform="matrix(1,0,0,0.930233,0,-0.240141)"
       cx="62.225393"
       cy="-3.4420195"
       fx="62.225393"
       fy="-3.4420195"
       r="10.081216" />
    <radialGradient
       inkscape:collect="always"
       xlink:href="#linearGradient8740"
       id="radialGradient8804"
       gradientUnits="userSpaceOnUse"
       gradientTransform="matrix(1,0,0,0.930233,0,-0.240141)"
       cx="62.225393"
       cy="-3.4420195"
       fx="62.225393"
       fy="-3.4420195"
       r="10.081216" />
    <radialGradient
       inkscape:collect="always"
       xlink:href="#linearGradient8740"
       id="radialGradient8806"
       gradientUnits="userSpaceOnUse"
       gradientTransform="matrix(1,0,0,0.930233,0,-0.240141)"
       cx="62.225393"
       cy="-3.4420195"
       fx="62.225393"
       fy="-3.4420195"
       r="10.081216" />
    <radialGradient
       inkscape:collect="always"
       xlink:href="#linearGradient8740"
       id="radialGradient8808"
       gradientUnits="userSpaceOnUse"
       gradientTransform="matrix(1,0,0,0.930233,0,-0.240141)"
       cx="62.225393"
       cy="-3.4420195"
       fx="62.225393"
       fy="-3.4420195"
       r="10.081216" />
    <radialGradient
       inkscape:collect="always"
       xlink:href="#linearGradient8740"
       id="radialGradient8810"
       gradientUnits="userSpaceOnUse"
       gradientTransform="matrix(1,0,0,0.930233,0,-0.240141)"
       cx="62.225393"
       cy="-3.4420195"
       fx="62.225393"
       fy="-3.4420195"
       r="10.081216" />
    <radialGradient
       inkscape:collect="always"
       xlink:href="#linearGradient8924"
       id="radialGradient9185"
       gradientUnits="userSpaceOnUse"
       gradientTransform="matrix(0.07657394,2.760516,-1.969551,0.05463895,60.09901,-55.47179)"
       cx="24.652573"
       cy="18.94449"
       fx="24.652485"
       fy="18.944481"
       r="8.61745" />
    <linearGradient
       id="linearGradient8924">
      <stop
         id="stop8926"
         offset="0"
         style="stop-color:#cee14b" />
      <stop
         id="stop8928"
         offset="1"
         style="stop-color:#9db029" />
    </linearGradient>
    <radialGradient
       inkscape:collect="always"
       xlink:href="#linearGradient8740"
       id="radialGradient8812"
       gradientUnits="userSpaceOnUse"
       gradientTransform="matrix(1,0,0,0.930233,0,-0.240141)"
       cx="62.225393"
       cy="-3.4420195"
       fx="62.225393"
       fy="-3.4420195"
       r="10.081216" />
    <radialGradient
       inkscape:collect="always"
       xlink:href="#linearGradient8924"
       id="radialGradient9187"
       gradientUnits="userSpaceOnUse"
       gradientTransform="matrix(0.06822876,2.459669,-1.754905,0.04868429,55.12882,-46.82188)"
       cx="24.652573"
       cy="18.94449"
       fx="24.652485"
       fy="18.944481"
       r="8.61745" />
    <radialGradient
       inkscape:collect="always"
       xlink:href="#linearGradient8740"
       id="radialGradient9189"
       gradientUnits="userSpaceOnUse"
       gradientTransform="matrix(0.891018,0,0,0.828854,1.579517,2.39052)"
       cx="62.225393"
       cy="-3.4420195"
       fx="62.225393"
       fy="-3.4420195"
       r="10.081216" />
    <radialGradient
       inkscape:collect="always"
       xlink:href="#linearGradient8930"
       id="radialGradient9191"
       gradientUnits="userSpaceOnUse"
       gradientTransform="matrix(0.159592,5.753335,-0.8072,0.0223703,32.87305,-131.6974)"
       cx="25.135374"
       cy="14.542349"
       fx="25.135332"
       fy="14.542329"
       r="4.13475" />
    <linearGradient
       id="linearGradient8930">
      <stop
         id="stop8932"
         offset="0"
         style="stop-color:#cee14b" />
      <stop
         id="stop8934"
         offset="1"
         style="stop-color:#9db029" />
    </linearGradient>
    <radialGradient
       inkscape:collect="always"
       xlink:href="#linearGradient8740"
       id="radialGradient8816"
       gradientUnits="userSpaceOnUse"
       gradientTransform="matrix(1,0,0,0.930233,0,-0.240141)"
       cx="62.225393"
       cy="-3.4420195"
       fx="62.225393"
       fy="-3.4420195"
       r="10.081216" />
    <radialGradient
       inkscape:collect="always"
       xlink:href="#linearGradient8930"
       id="radialGradient9193"
       gradientUnits="userSpaceOnUse"
       gradientTransform="matrix(0.159592,5.753335,-0.8072,0.0223703,32.87305,-130.867)"
       cx="25.135374"
       cy="14.542349"
       fx="25.135332"
       fy="14.542329"
       r="4.13475" />
    <radialGradient
       inkscape:collect="always"
       xlink:href="#linearGradient8740"
       id="radialGradient9195"
       gradientUnits="userSpaceOnUse"
       gradientTransform="matrix(1,0,0,0.930233,0,0.589884)"
       cx="62.225393"
       cy="-3.4420195"
       fx="62.225393"
       fy="-3.4420195"
       r="10.081216" />
    <radialGradient
       inkscape:collect="always"
       xlink:href="#linearGradient8912"
       id="radialGradient9197"
       gradientUnits="userSpaceOnUse"
       gradientTransform="matrix(0.222034,8.004376,-0.597156,0.01656095,29.5454,-182.3268)"
       cx="24.478569"
       cy="17.573915"
       fx="24.478539"
       fy="17.573889"
       r="2.97195" />
    <linearGradient
       id="linearGradient8912">
      <stop
         style="stop-color:#cee14b"
         offset="0"
         id="stop8914" />
      <stop
         style="stop-color:#9db029"
         offset="1"
         id="stop8916" />
    </linearGradient>
    <radialGradient
       inkscape:collect="always"
       xlink:href="#linearGradient8740"
       id="radialGradient8820"
       gradientUnits="userSpaceOnUse"
       gradientTransform="matrix(1,0,0,0.930233,0,-0.240141)"
       cx="62.225393"
       cy="-3.4420195"
       fx="62.225393"
       fy="-3.4420195"
       r="10.081216" />
    <radialGradient
       inkscape:collect="always"
       xlink:href="#linearGradient8912"
       id="radialGradient9199"
       gradientUnits="userSpaceOnUse"
       gradientTransform="matrix(0.222034,8.004376,-0.597156,0.01656095,29.85665,-181.6002)"
       cx="24.478569"
       cy="17.573915"
       fx="24.478539"
       fy="17.573889"
       r="2.97195" />
    <radialGradient
       inkscape:collect="always"
       xlink:href="#linearGradient8740"
       id="radialGradient9201"
       gradientUnits="userSpaceOnUse"
       gradientTransform="matrix(1,0,0,0.930233,0.311259,0.486131)"
       cx="62.225393"
       cy="-3.4420195"
       fx="62.225393"
       fy="-3.4420195"
       r="10.081216" />
    <radialGradient
       inkscape:collect="always"
       xlink:href="#linearGradient8918"
       id="radialGradient9203"
       gradientUnits="userSpaceOnUse"
       gradientTransform="matrix(0.06718136,2.42191,-1.629357,0.0451789,52.36869,-50.34012)"
       cx="25.969097"
       cy="17.257854"
       fx="25.968998"
       fy="17.257843"
       r="9.82225" />
    <linearGradient
       id="linearGradient8918">
      <stop
         id="stop8920"
         offset="0"
         style="stop-color:#cee14b" />
      <stop
         id="stop8922"
         offset="1"
         style="stop-color:#9db029" />
    </linearGradient>
    <radialGradient
       inkscape:collect="always"
       xlink:href="#linearGradient8740"
       id="radialGradient8824"
       gradientUnits="userSpaceOnUse"
       gradientTransform="matrix(1,0,0,0.930233,0,-0.240141)"
       cx="62.225393"
       cy="-3.4420195"
       fx="62.225393"
       fy="-3.4420195"
       r="10.081216" />
    <radialGradient
       inkscape:collect="always"
       xlink:href="#linearGradient8918"
       id="radialGradient9205"
       gradientUnits="userSpaceOnUse"
       gradientTransform="matrix(0.06168149,2.223638,-1.495968,0.04148028,50.51125,-44.50839)"
       cx="25.969097"
       cy="17.257854"
       fx="25.968998"
       fy="17.257843"
       r="9.82225" />
    <radialGradient
       inkscape:collect="always"
       xlink:href="#linearGradient8740"
       id="radialGradient9207"
       gradientUnits="userSpaceOnUse"
       gradientTransform="matrix(0.918134,0,0,0.854079,2.429764,1.490099)"
       cx="62.225393"
       cy="-3.4420195"
       fx="62.225393"
       fy="-3.4420195"
       r="10.081216" />
    <inkscape:perspective
       id="perspective5431"
       inkscape:persp3d-origin="24 : 16 : 1"
       inkscape:vp_z="48 : 24 : 1"
       inkscape:vp_y="0 : 1000 : 0"
       inkscape:vp_x="0 : 24 : 1"
       sodipodi:type="inkscape:persp3d" />
    <inkscape:perspective
       id="perspective5563"
       inkscape:persp3d-origin="0.5 : 0.33333333 : 1"
       inkscape:vp_z="1 : 0.5 : 1"
       inkscape:vp_y="0 : 1000 : 0"
       inkscape:vp_x="0 : 0.5 : 1"
       sodipodi:type="inkscape:persp3d" />
    <linearGradient
       id="linearGradient3956"
       inkscape:collect="always">
      <stop
         id="stop3958"
         offset="0"
         style="stop-color:#000000;stop-opacity:1;" />
      <stop
         id="stop3960"
         offset="1"
         style="stop-color:#000000;stop-opacity:0;" />
    </linearGradient>
    <linearGradient
       id="linearGradient8660"
       inkscape:collect="always">
      <stop
         id="stop8662"
         offset="0"
         style="stop-color:#c22f2f;stop-opacity:1" />
      <stop
         id="stop8664"
         offset="1"
         style="stop-color:#da3f3f;stop-opacity:1" />
    </linearGradient>
    <linearGradient
       inkscape:collect="always"
       xlink:href="#linearGradient3911"
       id="linearGradient5014"
       gradientUnits="userSpaceOnUse"
       x1="436.22424"
       y1="69.261185"
       x2="443.29364"
       y2="62.392006" />
    <linearGradient
       id="linearGradient3911"
       inkscape:collect="always">
      <stop
         id="stop3913"
         offset="0"
         style="stop-color:#ffffff;stop-opacity:1;" />
      <stop
         id="stop3915"
         offset="1"
         style="stop-color:#ffffff;stop-opacity:0;" />
    </linearGradient>
    <radialGradient
       inkscape:collect="always"
       xlink:href="#linearGradient3956"
       id="radialGradient5653"
       gradientUnits="userSpaceOnUse"
       gradientTransform="matrix(1,0,0,0.352381,0,93.783333)"
       cx="378.9375"
       cy="144.8125"
       fx="378.9375"
       fy="144.8125"
       r="6.5625" />
    <linearGradient
       inkscape:collect="always"
       xlink:href="#linearGradient8660"
       id="linearGradient5655"
       gradientUnits="userSpaceOnUse"
       gradientTransform="matrix(1.029719,0,0,-1.0213216,-426.62492,247.26456)"
       x1="404.01727"
       y1="197.6288"
       x2="404.01727"
       y2="185.93324" />
  </defs>
  <sodipodi:namedview
     id="base"
     pagecolor="#ffffff"
     bordercolor="#666666"
     borderopacity="1.0"
     inkscape:pageopacity="0.0"
     inkscape:pageshadow="2"
     inkscape:zoom="7.9180417"
     inkscape:cx="20.573505"
     inkscape:cy="14.385417"
     inkscape:current-layer="layer1"
     showgrid="true"
     inkscape:grid-bbox="true"
     inkscape:document-units="px"
     inkscape:window-width="1024"
     inkscape:window-height="526"
     inkscape:window-x="0"
     inkscape:window-y="27"
     inkscape:window-maximized="1" />
  <metadata
     id="metadata5301">
    <rdf:RDF>
      <cc:Work
         rdf:about="">
        <dc:format>image/svg+xml</dc:format>
        <dc:type
           rdf:resource="http://purl.org/dc/dcmitype/StillImage" />
        <dc:title></dc:title>
      </cc:Work>
    </rdf:RDF>
  </metadata>
  <g
     id="layer1"
     inkscape:label="Layer 1"
     inkscape:groupmode="layer">
    <g
       inkscape:label="Layer 1"
       id="layer1-9"
       transform="matrix(0.61591969,0,0,0.61591969,1.4626628,-1.8281666)">
      <g
         transform="matrix(1.673435,0,0,1.673435,-3.189256,-2.6680421)"
         id="g3020"
         inkscape:label="Layer 1">
        <g
           style="display:inline"
           id="g8936"
           transform="matrix(1.284706,0,0,1.284706,-63.89629,19.96894)">
          <path
             transform="matrix(0.9850108,0,0,1.1548402,0.4641642,-2.0682345)"
             d="M 73.25,4.625 C 73.25,6.6270322 68.493025,8.25 62.625,8.25 56.756975,8.25 52,6.6270322 52,4.625 52,2.6229678 56.756975,1 62.625,1 68.493025,1 73.25,2.6229678 73.25,4.625 z"
             sodipodi:ry="3.625"
             sodipodi:rx="10.625"
             sodipodi:cy="4.625"
             sodipodi:cx="62.625"
             id="path8836"
             style="opacity:0.56043958;fill:url(#radialGradient9169);fill-opacity:1;fill-rule:evenodd;stroke:none;stroke-width:0.99999988;marker:none;visibility:visible;display:inline;overflow:visible"
             sodipodi:type="arc" />
          <path
             id="path6495"
             d="m 71.453317,-3.3717777 c 0,5.137988 -4.165336,9.3031806 -9.302734,9.3031806 -5.13787,0 -9.302969,-4.1652397 -9.302969,-9.3031806 0,-5.1377525 4.165099,-9.3025213 9.302969,-9.3025213 5.137398,0 9.302734,4.1647688 9.302734,9.3025213 l 0,0 z"
             style="fill:url(#radialGradient9171);fill-opacity:1;fill-rule:nonzero;stroke:#204a87;stroke-width:0.46520078;stroke-miterlimit:4;stroke-dasharray:none" />
          <path
             style="opacity:0.5;fill:none;stroke:url(#linearGradient4879);stroke-width:0.46514398;stroke-miterlimit:4;stroke-opacity:1;stroke-dasharray:none"
             d="m 70.988079,-3.3717001 c 0,4.8810698 -3.957054,8.8379874 -8.837563,8.8379874 -4.880956,0 -8.837786,-3.9569625 -8.837786,-8.8379874 0,-4.880846 3.95683,-8.8373619 8.837786,-8.8373619 4.880509,0 8.837563,3.9565159 8.837563,8.8373619 l 0,0 z"
             id="path8655" />
          <image
             y="-11.413214"
             x="61.522053"
             id="image6522"
             href="62169F0D.png"
             height="16.411282"
             width="10.784556"
             style="opacity:0.75;fill:#ffffff;fill-rule:nonzero;stroke:url(#radialGradient8748);stroke-miterlimit:4" />
          <image
             y="-10.94432"
             x="61.990948"
             id="image6530"
             href="62169F0E.png"
             height="2.3444688"
             width="2.3444688"
             style="opacity:0.75;fill:#ffffff;fill-rule:nonzero;stroke:url(#radialGradient8750);stroke-miterlimit:4" />
          <g
             id="g6532"
             style="fill:#9db029;fill-rule:nonzero;stroke:url(#radialGradient8752);stroke-miterlimit:4"
             transform="matrix(0.468894,0,0,0.468894,50.39042,-14.57365)">
            <path
               style="fill:#9db029;stroke:url(#radialGradient9173)"
               id="path6534"
               d="m 26.0703,9.2363 -0.0732,0.4932 0.5098,0.3291 0.8711,-0.5757 -0.4355,-0.4937 -0.582,0.3296 -0.29,-0.0825" />
          </g>
          <image
             y="-12.819895"
             x="58.708691"
             id="image6538"
             href="62169F0F.png"
             height="4.6889377"
             width="5.6267252"
             style="opacity:0.75;fill:#ffffff;fill-rule:nonzero;stroke:url(#radialGradient8756);stroke-miterlimit:4" />
          <image
             y="-9.5376387"
             x="62.928734"
             id="image6546"
             href="62169F10.png"
             height="2.3444688"
             width="2.3444688"
             style="opacity:0.75;fill:#ffffff;fill-rule:nonzero;stroke:url(#radialGradient8758);stroke-miterlimit:4" />
          <g
             id="g6548"
             style="fill:#9db029;fill-rule:nonzero;stroke:url(#radialGradient8760);stroke-miterlimit:4"
             transform="matrix(0.468894,0,0,0.468894,49.7717,-14.57365)">
            <path
               style="fill:#9db029;stroke:url(#radialGradient9175)"
               id="path6550"
               d="m 28.833,12.7749 -0.291,-0.7412 -0.5098,0.165 0.1465,0.9043 0.6543,-0.3281" />
          </g>
          <image
             y="-10.006532"
             x="63.397629"
             id="image6554"
             href="62169F11.png"
             height="3.2822564"
             width="2.3444688"
             style="opacity:0.75;fill:#ffffff;fill-rule:nonzero;stroke:url(#radialGradient8764);stroke-miterlimit:4" />
          <g
             id="g6556"
             style="fill:#9db029;fill-rule:nonzero;stroke:url(#radialGradient8766);stroke-miterlimit:4"
             transform="matrix(0.468894,0,0,0.468894,49.94848,-14.57365)">
            <path
               style="fill:#9db029;stroke:url(#radialGradient9177)"
               id="path6558"
               d="m 29.123,12.6089 -0.1455,0.9883 0.7998,-0.165 0.5811,-0.5752 -0.5088,-0.4941 C 29.6787,11.9078 29.4824,11.483 29.2685,11.0465 l -0.4355,0 0,0.4932 0.29,0.3291 0,0.7402" />
          </g>
          <image
             y="-11.413214"
             x="52.144176"
             id="image6562"
             href="62169F12.png"
             height="17.34907"
             width="9.8467684"
             style="opacity:0.75;fill:#ffffff;fill-rule:nonzero;stroke:url(#radialGradient8770);stroke-miterlimit:4" />
          <image
             y="-10.94432"
             x="57.770901"
             id="image6570"
             href="62169F13.png"
             height="2.3444688"
             width="2.3444688"
             style="opacity:0.75;fill:#ffffff;fill-rule:nonzero;stroke:url(#radialGradient8772);stroke-miterlimit:4" />
          <g
             id="g6572"
             style="fill:#9db029;fill-rule:nonzero;stroke:url(#radialGradient8774);stroke-miterlimit:4"
             transform="matrix(0.468894,0,0,0.468894,50.39042,-14.57365)">
            <path
               style="fill:#9db029;stroke:url(#radialGradient9179)"
               id="path6574"
               d="m 16.7656,9.5649 0.7266,0.4937 0.582,0 0,-0.5757 -0.7266,-0.3291 -0.582,0.4111" />
          </g>
          <image
             y="-11.882107"
             x="56.36422"
             id="image6578"
             href="62169F14.png"
             height="3.2822564"
             width="4.2200437"
             style="opacity:0.75;fill:#ffffff;fill-rule:nonzero;stroke:url(#radialGradient8778);stroke-miterlimit:4" />
          <image
             y="-12.819895"
             x="57.30201"
             id="image6606"
             href="2D44FCEC.png"
             height="2.8133626"
             width="3.7511499"
             style="opacity:0.75;fill:#ffffff;fill-rule:nonzero;stroke:url(#radialGradient8780);stroke-miterlimit:4" />
          <g
             id="g6608"
             style="fill:#9db029;fill-rule:nonzero;stroke:url(#radialGradient8782);stroke-miterlimit:4"
             transform="matrix(0.468894,0,0,0.468894,50.96494,-14.52946)">
            <path
               style="fill:#9db029;stroke:url(#radialGradient9181)"
               id="path6610"
               d="m 17.4922,7.887132 0.3638,-0.3286 0.7271,-0.1646 c 0.498,-0.2422 0.998,-0.4053 1.5264,-0.5762 l -0.29,-0.4937 -0.9385,0.1348 -0.4434,0.4419 -0.731,0.106 -0.6499,0.3052 -0.3159,0.1528 -0.1929,0.2583 0.9443,0.1641" />
          </g>
          <image
             y="-8.5998507"
             x="58.239796"
             id="image6614"
             href="2D44FCED.png"
             height="2.3444688"
             width="2.3444688"
             style="opacity:0.75;fill:#ffffff;fill-rule:nonzero;stroke:url(#radialGradient8786);stroke-miterlimit:4" />
          <g
             id="g6616"
             style="fill:#9db029;fill-rule:nonzero;stroke:url(#radialGradient8788);stroke-miterlimit:4"
             transform="matrix(0.468894,0,0,0.468894,50.56718,-14.30851)">
            <path
               style="fill:#9db029;stroke:url(#radialGradient9183)"
               id="path6618"
               d="m 18.7285,14.6665 0.4365,-0.6582 -0.6548,-0.4932 0.2183,1.1514" />
          </g>
          <image
             y="-11.413214"
             x="61.522053"
             id="image6624"
             href="2D44FCEE.png"
             height="16.411282"
             width="10.784556"
             style="opacity:0.15750002;fill:#ffffff;fill-rule:nonzero;stroke:url(#radialGradient8792);stroke-miterlimit:4" />
          <image
             y="-10.94432"
             x="61.990948"
             id="image6632"
             href="2D44FCEF.png"
             height="2.3444688"
             width="2.3444688"
             style="opacity:0.15750002;fill:#ffffff;fill-rule:nonzero;stroke:url(#radialGradient8794);stroke-miterlimit:4" />
          <image
             y="-12.819895"
             x="58.708691"
             id="image6640"
             href="2D44FCF0.png"
             height="4.6889377"
             width="5.6267252"
             style="opacity:0.15750002;fill:#ffffff;fill-rule:nonzero;stroke:url(#radialGradient8796);stroke-miterlimit:4" />
          <image
             y="-9.5376387"
             x="62.928734"
             id="image6648"
             href="2D44FCF1.png"
             height="2.3444688"
             width="2.3444688"
             style="opacity:0.15750002;fill:#ffffff;fill-rule:nonzero;stroke:url(#radialGradient8798);stroke-miterlimit:4" />
          <image
             y="-10.006532"
             x="63.397629"
             id="image6656"
             href="2D44FCF2.png"
             height="3.2822564"
             width="2.3444688"
             style="opacity:0.15750002;fill:#ffffff;fill-rule:nonzero;stroke:url(#radialGradient8800);stroke-miterlimit:4" />
          <image
             y="-11.413214"
             x="52.144176"
             id="image6664"
             href="2D44FCF3.png"
             height="17.34907"
             width="9.8467684"
             style="opacity:0.15750002;fill:#ffffff;fill-rule:nonzero;stroke:url(#radialGradient8802);stroke-miterlimit:4" />
          <image
             y="-10.94432"
             x="57.770901"
             id="image6672"
             href="2D44FCF4.png"
             height="2.3444688"
             width="2.3444688"
             style="opacity:0.15750002;fill:#ffffff;fill-rule:nonzero;stroke:url(#radialGradient8804);stroke-miterlimit:4" />
          <image
             y="-11.882107"
             x="56.36422"
             id="image6680"
             href="2D44FCF5.png"
             height="3.2822564"
             width="4.2200437"
             style="opacity:0.15750002;fill:#ffffff;fill-rule:nonzero;stroke:url(#radialGradient8806);stroke-miterlimit:4" />
          <image
             y="-12.819895"
             x="57.30201"
             id="image6708"
             href="2D44FD11.png"
             height="2.8133626"
             width="3.7511499"
             style="opacity:0.15750002;fill:#ffffff;fill-rule:nonzero;stroke:url(#radialGradient8808);stroke-miterlimit:4" />
          <image
             y="-8.5998507"
             x="58.239796"
             id="image6716"
             href="2D44FD12.png"
             height="2.3444688"
             width="2.3444688"
             style="opacity:0.15750002;fill:#ffffff;fill-rule:nonzero;stroke:url(#radialGradient8810);stroke-miterlimit:4" />
          <g
             id="g6564"
             style="fill:url(#radialGradient9185);fill-opacity:1;fill-rule:nonzero;stroke:url(#radialGradient8812);stroke-miterlimit:4"
             transform="matrix(0.468894,0,0,0.468894,50.74397,-14.61784)">
            <path
               style="fill:url(#radialGradient9187);fill-opacity:1;stroke:url(#radialGradient9189)"
               id="path6566"
               d="m 17.943241,27.768799 -0.518573,-1.02672 -0.971477,-0.219726 -0.518127,-1.392215 -1.295183,0.146216 -1.100764,-0.805748 -1.166432,1.025918 0,0.161809 C 12.019842,25.55649 11.586095,25.54259 11.271922,25.349417 l -0.259287,-0.732684 0,-0.806638 -0.777056,0.07306 c 0.06487,-0.513404 0.129197,-1.025918 0.194509,-1.539233 l -0.4537956,0 -0.4529044,0.586468 -0.4537955,0.219279 -0.6478592,-0.365495 -0.064866,-0.806639 0.1296431,-0.879702 0.9719225,-0.732684 0.7770571,0 0.129197,-0.440252 0.971477,0.219279 0.712636,0.880593 0.129643,-1.467061 1.230764,-1.025918 0.45335,-1.099872 0.906699,-0.366298 0.518127,-0.732684 1.165541,-0.220973 0.583439,-0.878811 c -0.582993,0 -1.165987,0 -1.74898,0 l 1.10112,-0.513404 0.776612,0 1.101565,-0.367189 0.129643,-0.438559 -0.388929,-0.367188 -0.45335,-0.147018 0.129643,-0.43945 -0.323707,-0.659532 -0.777502,0.292343 0.129643,-0.586022 -0.9067,-0.513405 -0.71219,1.245554 0.06442,0.440252 -0.71219,0.294125 -0.453796,0.952766 -0.194064,-0.879702 -1.230763,-0.513405 -0.194509,-0.659531 1.619336,-0.953657 0.712636,-0.659532 0.06487,-0.8061926 -0.388483,-0.2201702 -0.518127,-0.073509 -0.323707,0.8066378 c 0,0 -0.54165,0.106121 -0.680916,0.140514 -1.778561,1.638938 -5.372215,5.176904 -6.2070989,11.856064 0.033057,0.154859 0.6051795,1.052827 0.6051795,1.052827 l 1.3600498,0.805747 1.3600499,0.367189 0.5834387,0.733486 0.906254,0.659531 0.518127,-0.07306 0.388484,0.174907 0,0.118327 -0.517771,1.392661 -0.388929,0.586468 0.129643,0.294125 -0.323707,1.098091 1.165987,2.126592 1.16554,1.02672 0.518573,0.732684 -0.06522,1.540125 0.38893,0.878811 -0.38893,1.686341 c 0,0 -0.03047,-0.01043 0.01916,0.158334 0.05007,0.168847 2.07527,1.293045 2.204022,1.19735 0.128307,-0.09748 0.237991,-0.182748 0.237991,-0.182748 l -0.129198,-0.365496 0.517771,-0.513404 0.194509,-0.513405 0.84228,-0.294125 0.647413,-1.613188 -0.194063,-0.438559 0.452458,-0.659532 0.971923,-0.220972 0.518572,-1.172936 -0.129643,-1.465279 0.777057,-1.099873 0.129643,-1.099873 c -1.063341,-0.527304 -2.11795,-1.07029 -3.17336,-1.613188" />
          </g>
          <g
             id="g6540"
             style="fill:url(#radialGradient9191);fill-opacity:1;fill-rule:nonzero;stroke:url(#radialGradient8816);stroke-miterlimit:4"
             transform="matrix(0.468894,0,0,0.468894,50.523,-14.44107)">
            <path
               style="fill:url(#radialGradient9193);fill-opacity:1;stroke:url(#radialGradient9195)"
               id="path6542"
               d="m 26.8701,6.6933256 -1.8906,-0.7407 -2.1797,0.2466 -2.6904,0.7402 -0.5088,0.4941 1.6719,1.1514 0,0.6582 -0.6543,0.6582 0.873,1.7289984 0.5801,-0.3301 0.7285,-1.151399 c 1.123,-0.3471994 2.1299,-0.7406994 3.1973,-1.2343994 l 0.873,-2.2212" />
          </g>
          <g
             id="g6580"
             style="fill:url(#radialGradient9197);fill-opacity:1;fill-rule:nonzero;stroke:url(#radialGradient8820);stroke-miterlimit:4"
             transform="matrix(0.468894,0,0,0.468894,50.83236,-14.75043)">
            <path
               style="fill:url(#radialGradient9199);fill-opacity:1;stroke:url(#radialGradient9201)"
               id="path6582"
               d="m 15.187259,9.6334723 -0.3638,0.9047987 0.7271,0 0.3638,-0.8227987 c 0.3135,-0.2217 0.6255,-0.4448 0.9448,-0.6582 l 0.7271,0.2471 c 0.4844,0.3291 0.9688,0.6582 1.4536,0.9867997 l 0.7275,-0.6576997 -0.8003,-0.3291 -0.3638,-0.7407 -1.3809,-0.1646 -0.0728,-0.4116 -0.6543,0.165 -0.2904,0.5758 -0.3638,-0.7407 -0.145,0.3291 0.0728,0.8228 -0.5816,0.494" />
          </g>
          <g
             id="g6626"
             style="fill:url(#radialGradient9203);fill-opacity:1;fill-rule:nonzero;stroke:url(#radialGradient8824);stroke-miterlimit:4"
             transform="matrix(0.468894,0,0,0.468894,50.12526,-14.48526)">
            <path
               style="fill:url(#radialGradient9205);fill-opacity:1;stroke:url(#radialGradient9207)"
               id="path6628"
               d="m 42.893123,20.729176 c 0,0.241194 0,0 0,0 l -0.500291,0.566672 c -0.306657,-0.361377 -0.650957,-0.66528 -1.000583,-0.982679 l -0.767468,0.112931 -0.701179,-0.792625 0,0.980934 0.600735,0.454568 0.399848,0.452824 0.534354,-0.604316 c 0.134506,0.251936 0.267177,0.503872 0.400765,0.755808 l 0,0.754982 -0.601653,0.679602 -1.101026,0.755808 -0.83385,0.832105 -0.534354,-0.606152 0.267177,-0.679603 -0.533527,-0.604315 -0.901057,-1.92597 -0.767468,-0.867912 -0.200888,0.225953 0.30124,1.095701 0.566672,0.641959 c 0.323642,0.934293 0.643796,1.82727 1.0688,2.720339 0.659036,0 1.280338,-0.06996 1.934875,-0.15241 l 0,0.529029 -0.800704,1.964072 -0.734324,0.830269 -0.600735,1.285754 c 0,0.70476 0,1.40952 0,2.114188 l 0.200888,0.832105 -0.333558,0.376618 -0.735242,0.45365 -0.767468,0.641959 0.634798,0.717338 -0.867912,0.756727 0.166733,0.489549 -1.301914,1.474064 -0.866994,0 -0.734324,0.45365 -0.468064,0 0,-0.604316 -0.199052,-1.210468 c -0.258271,-0.758562 -0.527192,-1.511708 -0.800705,-2.264853 0,-0.55593 0.03314,-1.106443 0.06638,-1.662282 l 0.334477,-0.754981 -0.468065,-0.907392 0.03406,-1.246275 -0.634798,-0.717338 0.317399,-1.038318 -0.516451,-0.585953 -0.901974,0 -0.300322,-0.339801 -0.901057,0.567131 -0.366702,-0.416466 -0.834768,0.717706 C 27.577179,26.356327 27.009588,25.714368 26.44209,25.072409 l -0.667116,-1.586995 0.600735,-0.905555 -0.333558,-0.377445 0.733405,-1.738579 c 0.602571,-0.749564 1.231952,-1.468647 1.868586,-2.190392 l 1.135089,-0.302158 1.267852,-0.150666 0.867912,0.226871 1.234615,1.245357 0.434001,-0.490467 0.599817,-0.07529 1.135089,0.377445 0.867913,0 0.600735,-0.529029 0.267177,-0.377445 -0.601654,-0.377445 -1.0015,-0.07529 c -0.277919,-0.385524 -0.53619,-0.790789 -0.866168,-1.133344 l -0.334476,0.150665 -0.133589,0.982679 -0.600735,-0.679603 -0.13267,-0.756726 -0.667116,-0.527192 -0.268095,0 0.667942,0.754981 -0.267177,0.679603 -0.533527,0.150666 0.333558,-0.679603 -0.601654,-0.30124 -0.532609,-0.604315 -1.002419,0.225952 -0.13267,0.30124 -0.600735,0.378363 -0.333558,0.831187 -0.83385,0.415088 -0.36762,-0.415088 -0.399848,0 0,-1.360124 0.867912,-0.45365 0.667116,0 -0.134506,-0.52811 -0.53261,-0.529029 0.900231,-0.189228 0.500291,-0.565754 0.399847,-0.680521 0.735242,0 -0.200888,-0.52811 0.468065,-0.302158 0,0.604315 1.000582,0.225953 1.000583,-0.830268 0.06721,-0.378363 0.866994,-0.603857 c -0.313818,0.03902 -0.627636,0.06767 -0.934293,0.151125 l 0,-0.680429 0.333558,-0.755441 -0.333558,0 -0.733038,0.679603 -0.200888,0.377904 0.200888,0.529488 -0.334476,0.905555 -0.533528,-0.302158 -0.466229,-0.52811 -0.735241,0.52811 -0.267177,-1.208172 1.267851,-0.830728 0,-0.4536504 0.801531,-0.5285696 1.267851,-0.302617 0.867912,0.302617 1.601318,0.3021579 -0.399848,0.4528241 -0.867912,0 0.867912,0.906474 0.667117,-0.754982 0.202632,-0.3321814 c 0,0 2.558931,2.2934994 4.021335,4.8023004 1.462404,2.509628 2.149168,5.46758 2.149168,6.068315 z" />
          </g>
        </g>
      </g>
    </g>
    <path
       sodipodi:type="inkscape:offset"
       inkscape:radius="-0.96875"
       inkscape:original="M 436.53125 60.5 L 436.53125 67.46875 L 429.53125 67.46875 L 429.5 69 L 439.53125 79.34375 L 449.53125 69.0625 L 449.53125 67.46875 L 442.46875 67.46875 L 442.46875 60.5 L 436.53125 60.5 z "
       style="opacity:0.3;fill:none;stroke:url(#linearGradient5014);stroke-width:0.99999994;stroke-linejoin:miter;stroke-miterlimit:4;stroke-opacity:1;stroke-dasharray:none;display:inline;enable-background:new"
       id="path3907"
       d="m 437.5,61.46875 0,6 a 0.96884687,0.96884687 0 0 1 -0.96875,0.96875 l -6.0625,0 0,0.1875 9.0625,9.3125 9.03125,-9.28125 0,-0.21875 -6.09375,0 A 0.96884687,0.96884687 0 0 1 441.5,67.46875 l 0,-6 -4,0 z" />
    <g
       id="g5645"
       transform="matrix(1.0754968,0,0,1.0754968,26.983674,-33.353032)">
      <path
         transform="matrix(1.3462128,0,0,-1.3499195,-521.15133,255.17771)"
         d="m 385.5,144.8125 c 0,1.27716 -2.93813,2.3125 -6.5625,2.3125 -3.62437,0 -6.5625,-1.03534 -6.5625,-2.3125 0,-1.27716 2.93813,-2.3125 6.5625,-2.3125 3.62437,0 6.5625,1.03534 6.5625,2.3125 z"
         sodipodi:ry="2.3125"
         sodipodi:rx="6.5625"
         sodipodi:cy="144.8125"
         sodipodi:cx="378.9375"
         id="path3899"
         style="opacity:0.26086958;fill:url(#radialGradient5653);fill-opacity:1;stroke:none;display:inline;enable-background:new"
         sodipodi:type="arc" />
      <path
         sodipodi:nodetypes="cccccccccc"
         id="path3843"
         d="m -13.018323,58.674528 0,-5.616102 -5.6109,0 -0.03219,-1.215577 8.075128,-8.33194 8.0463438,8.264462 0,1.283055 -5.682033,0 0,5.616102 -4.7963598,0 8e-6,0 z"
         style="fill:url(#linearGradient5655);fill-opacity:1;stroke:#a40000;stroke-width:0.80467463;stroke-linejoin:round;stroke-miterlimit:4;stroke-opacity:1;stroke-dasharray:none;display:inline;enable-background:new" />
      <g
         transform="matrix(1.029719,0,0,-1.0213216,-395.73335,246.24323)"
         style="opacity:0.5;display:inline;enable-background:new"
         id="g3853">
        <rect
           y="189.56058"
           x="366.5762"
           height="0.78787541"
           width="5.4701591"
           id="rect3855"
           style="opacity:0.3;fill:#ffffff;fill-opacity:1;stroke:none;display:inline;enable-background:new" />
        <rect
           y="189.56058"
           x="375.95361"
           height="0.78787541"
           width="5.4701519"
           id="rect3858"
           style="opacity:0.3;fill:#ffffff;fill-opacity:1;stroke:none;display:inline;enable-background:new" />
      </g>
      <rect
         transform="scale(1,-1)"
         y="-58.273651"
         x="-12.630148"
         height="0.80467415"
         width="4.0233731"
         id="rect3897"
         style="opacity:0.3;fill:#ffffff;fill-opacity:1;stroke:none;display:inline;enable-background:new" />
    </g>
  </g>
</svg>
